<?xml version="1.0" encoding="utf-8"?>
<!-- Generator: Adobe Illustrator 24.2.0, SVG Export Plug-In . SVG Version: 6.00 Build 0)  -->
<svg version="1.1" id="Layer_1" xmlns="http://www.w3.org/2000/svg" xmlns:xlink="http://www.w3.org/1999/xlink" x="0px" y="0px"
	 viewBox="0 0 1920 1080" style="enable-background:new 0 0 1920 1080;" xml:space="preserve">
<style type="text/css">
	.st0{fill:#004D57;}
	.st1{fill:#D3AE6C;}
	.st2{fill-rule:evenodd;clip-rule:evenodd;fill:#D3AE6C;}
	.st3{fill-rule:evenodd;clip-rule:evenodd;fill:#35DDEF;}
	.st4{fill:#35DDEF;}
</style>
<g>
	<path class="st0" d="M338.22,547.86h96.4c53.59,0,73.94,33.83,73.94,68.55c0,34.73-20.36,68.55-73.94,68.55h-49.39v76.64h-47
		V547.86z M385.22,648.44h36.52c21.55,0,41.31-4.79,41.31-32.03c0-27.24-19.76-32.03-41.31-32.03h-36.52V648.44z"/>
	<path class="st0" d="M1089.56,764.52c-59.87,0-108.37-48.5-108.37-108.37c0-59.27,48.5-108.37,108.37-108.37
		c41.01,0,75.74,22.75,94,55.38c-18.26,9.58-19.76,10.48-40.11,20.36c-10.48-18.26-30.84-30.83-53.89-30.83
		c-35.03,0-63.46,28.74-63.46,63.47c0,35.03,28.44,63.46,63.46,63.46c23.95,0,44.91-12.87,55.68-33.23
		c20.36,10.48,20.96,11.68,40.12,20.36C1167.09,741.17,1131.77,764.52,1089.56,764.52z"/>
	<g>
		<g>
			<path class="st1" d="M318.44,795.45h19.12c9.22,0,16.03,5.94,16.03,14.36c0,8.42-6.81,14.36-16.03,14.36h-10.02v13.8h-9.1V795.45
				z M336.57,815.8c4.52,0,7.61-2.35,7.61-6c0-3.65-3.09-6-7.61-6h-9.03v12H336.57z"/>
			<path class="st1" d="M378.34,827.87l5.75,5.88c-2.85,2.97-8.35,4.95-13.06,4.95c-9.53,0-16.95-6.99-16.95-16.83
				c0-9.65,7.12-16.64,16.46-16.64c10.02,0,15.9,7.61,15.9,19.68h-23.08c1.05,3.47,3.84,5.82,7.61,5.82
				C373.51,830.72,376.6,829.54,378.34,827.87z M363.48,818.4h14.29c-0.87-3.16-3.22-5.2-6.87-5.2
				C367.51,813.21,364.66,815.19,363.48,818.4z"/>
			<path class="st1" d="M409.39,805.22v7.61c-6.68,0-10.95,3.84-10.95,9.84v15.28h-9.03v-31.99h9.03v5.94
				C400.55,807.76,404.51,805.22,409.39,805.22z"/>
			<path class="st1" d="M409.02,833.87l3.9-6.25c2.85,2.04,6.44,3.59,10.71,3.59c2.41,0,4.15-0.99,4.15-2.41
				c0-1.98-2.35-2.6-5.63-3.46c-6.56-1.61-11.63-3.4-11.7-9.71c-0.06-6.06,4.95-10.4,12.5-10.4c4.58,0,9.1,1.61,12.62,3.96
				l-3.65,6.44c-2.91-1.79-6.25-2.85-8.97-2.85c-2.23,0-3.77,0.8-3.77,1.92c0,1.73,1.3,2.23,5.63,3.4
				c5.51,1.42,11.63,3.28,11.63,10.27c0,6.31-5.14,10.33-12.99,10.33C418.3,838.7,412.86,836.97,409.02,833.87z"/>
			<path class="st1" d="M437.55,821.93c0-9.1,7.98-16.71,17.51-16.71c9.47,0,17.39,7.61,17.39,16.71c0,9.1-7.92,16.77-17.39,16.77
				C445.53,838.7,437.55,831.03,437.55,821.93z M463.84,821.93c0-4.95-4.02-9.1-8.79-9.1c-4.83,0-8.85,4.15-8.85,9.1
				c0,4.95,4.02,9.16,8.85,9.16C459.82,831.09,463.84,826.88,463.84,821.93z"/>
			<path class="st1" d="M505.79,817.6v20.36h-8.72v-18.44c0-3.96-2.48-6.68-6.06-6.68c-3.77,0-6.68,2.72-6.68,6.19l-0.06-0.19v19.12
				h-9.03v-31.99h9.03v4.02c1.92-2.91,5.51-4.76,9.65-4.76C500.84,805.22,505.79,810.36,505.79,817.6z"/>
			<path class="st1" d="M538.59,818.84v19.12h-8.72v-3.22c-2.29,2.6-5.94,3.96-9.41,3.96c-6.81,0-12.07-4.08-12.07-10.21
				c0-6.31,5.88-10.64,13.3-10.64c2.6,0,5.45,0.56,8.17,1.61v-0.62c0-3.4-2.1-6.37-7.36-6.37c-2.97,0-5.75,0.99-8.29,2.29l-3.03-6
				c4.52-2.29,8.91-3.53,13.37-3.53C532.89,805.22,538.59,810.48,538.59,818.84z M529.86,827.87v-2.97
				c-2.04-0.74-4.39-1.18-6.87-1.18c-3.28,0-5.88,1.92-5.88,4.52c0,2.6,2.29,4.21,5.38,4.21
				C525.96,832.45,529.24,830.84,529.86,827.87z"/>
			<path class="st1" d="M543.04,794.7h9.03v43.25h-9.03V794.7z"/>
			<path class="st1" d="M571.5,795.45h15.22c14.29,0,24.44,8.79,24.44,21.22c0,12.44-10.15,21.29-24.44,21.29H571.5V795.45z
				 M587.9,829.66c8.11,0,13.86-5.38,13.86-12.99c0-7.55-5.75-12.93-13.86-12.93h-7.3v25.93H587.9z"/>
			<path class="st1" d="M643.15,818.84v19.12h-8.72v-3.22c-2.29,2.6-5.94,3.96-9.41,3.96c-6.81,0-12.07-4.08-12.07-10.21
				c0-6.31,5.88-10.64,13.3-10.64c2.6,0,5.45,0.56,8.17,1.61v-0.62c0-3.4-2.1-6.37-7.36-6.37c-2.97,0-5.75,0.99-8.29,2.29l-3.03-6
				c4.52-2.29,8.91-3.53,13.37-3.53C637.46,805.22,643.15,810.48,643.15,818.84z M634.43,827.87v-2.97
				c-2.04-0.74-4.39-1.18-6.87-1.18c-3.28,0-5.88,1.92-5.88,4.52c0,2.6,2.29,4.21,5.38,4.21
				C630.53,832.45,633.81,830.84,634.43,827.87z"/>
			<path class="st1" d="M666.6,835.91c-1.86,1.67-4.76,2.78-7.36,2.78c-5.63,0-9.59-4.02-9.59-9.78v-15.66h-4.39v-7.3h4.39v-8.79
				h8.66v8.79h6.93v7.3h-6.93v14.23c0,2.1,1.36,3.59,3.03,3.59c1.24,0,2.47-0.43,3.09-1.05L666.6,835.91z"/>
			<path class="st1" d="M697.41,818.84v19.12h-8.72v-3.22c-2.29,2.6-5.94,3.96-9.41,3.96c-6.81,0-12.07-4.08-12.07-10.21
				c0-6.31,5.88-10.64,13.3-10.64c2.6,0,5.45,0.56,8.17,1.61v-0.62c0-3.4-2.1-6.37-7.36-6.37c-2.97,0-5.75,0.99-8.29,2.29l-3.03-6
				c4.52-2.29,8.91-3.53,13.37-3.53C691.72,805.22,697.41,810.48,697.41,818.84z M688.69,827.87v-2.97
				c-2.04-0.74-4.39-1.18-6.87-1.18c-3.28,0-5.88,1.92-5.88,4.52c0,2.6,2.29,4.21,5.38,4.21
				C684.79,832.45,688.07,830.84,688.69,827.87z"/>
			<path class="st1" d="M716.22,795.45h19.12c9.22,0,16.03,5.94,16.03,14.36c0,8.42-6.81,14.36-16.03,14.36h-10.02v13.8h-9.1V795.45
				z M734.35,815.8c4.52,0,7.61-2.35,7.61-6c0-3.65-3.09-6-7.61-6h-9.03v12H734.35z"/>
			<path class="st1" d="M773.64,805.22v7.61c-6.68,0-10.95,3.84-10.95,9.84v15.28h-9.03v-31.99h9.03v5.94
				C764.79,807.76,768.75,805.22,773.64,805.22z"/>
			<path class="st1" d="M773.14,821.93c0-9.1,7.98-16.71,17.51-16.71c9.47,0,17.39,7.61,17.39,16.71c0,9.1-7.92,16.77-17.39,16.77
				C781.12,838.7,773.14,831.03,773.14,821.93z M799.44,821.93c0-4.95-4.02-9.1-8.79-9.1c-4.83,0-8.85,4.15-8.85,9.1
				c0,4.95,4.02,9.16,8.85,9.16C795.42,831.09,799.44,826.88,799.44,821.93z"/>
			<path class="st1" d="M830,835.91c-1.86,1.67-4.76,2.78-7.36,2.78c-5.63,0-9.59-4.02-9.59-9.78v-15.66h-4.39v-7.3h4.39v-8.79h8.66
				v8.79h6.93v7.3h-6.93v14.23c0,2.1,1.36,3.59,3.03,3.59c1.24,0,2.47-0.43,3.09-1.05L830,835.91z"/>
			<path class="st1" d="M854.94,827.87l5.75,5.88c-2.85,2.97-8.35,4.95-13.06,4.95c-9.53,0-16.95-6.99-16.95-16.83
				c0-9.65,7.12-16.64,16.46-16.64c10.02,0,15.9,7.61,15.9,19.68h-23.08c1.05,3.47,3.84,5.82,7.61,5.82
				C850.11,830.72,853.21,829.54,854.94,827.87z M840.09,818.4h14.29c-0.87-3.16-3.22-5.2-6.87-5.2
				C844.11,813.21,841.26,815.19,840.09,818.4z"/>
			<path class="st1" d="M864.22,821.93c0-9.1,8.04-16.71,17.51-16.71c5.2,0,9.47,2.1,12.56,5.44l-6,5.14
				c-1.61-1.79-4.15-2.97-6.62-2.97c-4.7,0-8.66,4.15-8.66,9.03c0,5.01,3.96,9.22,8.72,9.22c2.48,0,5.07-1.24,6.75-3.09l6,5.07
				c-3.16,3.47-7.49,5.63-12.81,5.63C872.2,838.7,864.22,831.03,864.22,821.93z"/>
			<path class="st1" d="M915.76,835.91c-1.86,1.67-4.76,2.78-7.36,2.78c-5.63,0-9.59-4.02-9.59-9.78v-15.66h-4.39v-7.3h4.39v-8.79
				h8.66v8.79h6.93v7.3h-6.93v14.23c0,2.1,1.36,3.59,3.03,3.59c1.24,0,2.47-0.43,3.09-1.05L915.76,835.91z"/>
			<path class="st1" d="M917.8,796.62c0-2.54,2.17-4.83,4.95-4.83c2.66,0,4.83,2.29,4.83,4.83c0,2.72-2.17,4.95-4.83,4.95
				C919.97,801.57,917.8,799.34,917.8,796.62z M918.17,805.97h9.03v31.99h-9.03V805.97z"/>
			<path class="st1" d="M930.11,821.93c0-9.1,7.98-16.71,17.51-16.71c9.47,0,17.39,7.61,17.39,16.71c0,9.1-7.92,16.77-17.39,16.77
				C938.09,838.7,930.11,831.03,930.11,821.93z M956.41,821.93c0-4.95-4.02-9.1-8.79-9.1c-4.83,0-8.85,4.15-8.85,9.1
				c0,4.95,4.02,9.16,8.85,9.16C952.39,831.09,956.41,826.88,956.41,821.93z"/>
			<path class="st1" d="M998.36,817.6v20.36h-8.72v-18.44c0-3.96-2.48-6.68-6.06-6.68c-3.77,0-6.68,2.72-6.68,6.19l-0.06-0.19v19.12
				h-9.03v-31.99h9.03v4.02c1.92-2.91,5.51-4.76,9.65-4.76C993.41,805.22,998.36,810.36,998.36,817.6z"/>
			<path class="st1" d="M1015.5,816.67c0-11.94,10.4-21.97,22.59-21.97c6.43,0,12.38,2.72,16.52,7.12l-6.62,5.94
				c-2.48-2.85-6-4.76-9.9-4.76c-7.12,0-13.18,6.31-13.18,13.67c0,7.43,6.06,13.74,13.18,13.74c3.9,0,7.42-1.92,9.9-4.76l6.62,5.94
				c-4.15,4.33-10.09,7.12-16.52,7.12C1025.89,838.7,1015.5,828.61,1015.5,816.67z"/>
			<path class="st1" d="M1079.29,827.87l5.75,5.88c-2.85,2.97-8.35,4.95-13.06,4.95c-9.53,0-16.95-6.99-16.95-16.83
				c0-9.65,7.12-16.64,16.46-16.64c10.02,0,15.9,7.61,15.9,19.68h-23.08c1.05,3.47,3.84,5.82,7.61,5.82
				C1074.46,830.72,1077.56,829.54,1079.29,827.87z M1064.44,818.4h14.29c-0.87-3.16-3.22-5.2-6.87-5.2
				C1068.46,813.21,1065.61,815.19,1064.44,818.4z"/>
			<path class="st1" d="M1120.75,817.6v20.36h-8.72v-18.44c0-3.96-2.48-6.68-6.06-6.68c-3.77,0-6.68,2.72-6.68,6.19l-0.06-0.19
				v19.12h-9.03v-31.99h9.03v4.02c1.92-2.91,5.51-4.76,9.65-4.76C1115.8,805.22,1120.75,810.36,1120.75,817.6z"/>
			<path class="st1" d="M1144.19,835.91c-1.86,1.67-4.76,2.78-7.36,2.78c-5.63,0-9.59-4.02-9.59-9.78v-15.66h-4.39v-7.3h4.39v-8.79
				h8.66v8.79h6.93v7.3h-6.93v14.23c0,2.1,1.36,3.59,3.03,3.59c1.24,0,2.47-0.43,3.09-1.05L1144.19,835.91z"/>
			<path class="st1" d="M1169.13,827.87l5.75,5.88c-2.85,2.97-8.35,4.95-13.06,4.95c-9.53,0-16.95-6.99-16.95-16.83
				c0-9.65,7.12-16.64,16.46-16.64c10.02,0,15.9,7.61,15.9,19.68h-23.08c1.05,3.47,3.84,5.82,7.61,5.82
				C1164.3,830.72,1167.4,829.54,1169.13,827.87z M1154.28,818.4h14.29c-0.87-3.16-3.22-5.2-6.87-5.2
				C1158.3,813.21,1155.45,815.19,1154.28,818.4z"/>
			<path class="st1" d="M1200.19,805.22v7.61c-6.68,0-10.95,3.84-10.95,9.84v15.28h-9.03v-31.99h9.03v5.94
				C1191.34,807.76,1195.3,805.22,1200.19,805.22z"/>
		</g>
	</g>
	<path class="st0" d="M635.73,550.18h-92.2v213.75h92.2c65.26,0,96.99-46.1,96.99-108.07C732.72,585.2,691.11,550.18,635.73,550.18z
		 M653.99,670.97c1.13,5.82,2.27,11.65,3.39,17.47c1.05,5.45,2.1,10.9,3.14,16.35c1.16,6.1,1.73,7.45,2.88,13.55
		c0.02,0.1-0.01,0.2-0.02,0.39c-20.97,0-40.48,0-61.67,0c0.44-2.28,0.01,0.27,0.42-1.94c0.9-4.77,1.79-9.55,2.7-14.32
		c0.53-2.76,1.09-5.51,1.62-8.27c0.72-3.78,1.42-7.57,2.15-11.35c0.54-2.83,1.13-5.65,1.67-8.48c0.71-3.68,1.38-7.36,2.08-11.04
		c0.3-1.6,0.58-3.21,0.96-4.8c0.15-0.63-0.07-0.97-0.52-1.3c-4.93-3.6-8.57-8.25-10.94-13.85c-1.3-3.07-2.01-6.29-2.4-9.63
		c-0.39-3.31-0.15-6.53,0.43-9.73c0.67-3.73,2.07-7.24,4.02-10.51c3.5-5.83,8.34-10.22,14.46-13.13c3.42-1.63,7.07-2.5,10.86-2.98
		c3.13-0.4,6.19-0.16,9.23,0.39c4.14,0.75,8.02,2.26,11.59,4.53c4.83,3.07,8.65,7.07,11.44,12.07c2.45,4.4,3.81,9.12,4.11,14.14
		c0.34,5.73-0.72,11.21-3.21,16.37c-2.37,4.91-5.78,9.01-10.14,12.31c-0.33,0.25-0.69,0.84-0.62,1.2
		C652.36,662.59,653.18,666.78,653.99,670.97z"/>
	<g>
		<g>
			<g>
				<g>
					<path class="st0" d="M373.78,368.17c1.82,1.67,4.18,2.51,7.06,2.51v11.68c-4.84,0-8.95-1-12.35-3s-5.89-4.86-7.46-8.6
						c-2.84,6.69-8.04,10.02-15.61,10.02c-3.07,0-5.91-0.8-8.57-2.4c-2.64-1.62-4.78-3.86-6.37-6.8c-1.62-2.91-2.42-6.22-2.42-9.91
						c0-4.58,1.13-8.6,3.35-12.06c2.24-3.49,5.33-6.15,9.28-8.02c3.93-1.87,8.37-2.8,13.33-2.8c1.89,0,3.6,0.11,5.13,0.31v-3.62
						h11.91v25.1C371.05,363.95,371.96,366.48,373.78,368.17z M340.35,328.95c-1.31-1.31-1.95-2.89-1.95-4.73s0.64-3.42,1.95-4.73
						c1.33-1.31,2.91-1.98,4.75-1.98c1.82,0,3.42,0.67,4.73,1.98s1.98,2.89,1.98,4.73s-0.67,3.42-1.98,4.73s-2.91,1.98-4.73,1.98
						C343.26,330.92,341.68,330.26,340.35,328.95z M356.25,365.64c1.93-2.42,2.89-5.71,2.89-9.86v-5.38
						c-1.73-0.27-3.29-0.38-4.66-0.38c-4.24,0-7.77,1.02-10.53,3.11c-2.75,2.07-4.13,4.89-4.13,8.4c0,2.49,0.8,4.38,2.44,5.73
						c1.62,1.33,3.73,2,6.31,2C351.77,369.26,354.34,368.06,356.25,365.64z M356.05,328.95c-1.31-1.31-1.95-2.89-1.95-4.73
						s0.64-3.42,1.95-4.73c1.33-1.31,2.91-1.98,4.75-1.98c1.82,0,3.4,0.67,4.73,1.98c1.31,1.31,1.95,2.89,1.95,4.73
						s-0.64,3.42-1.95,4.73c-1.33,1.31-2.91,1.98-4.73,1.98C358.96,330.92,357.39,330.26,356.05,328.95z"/>
				</g>
			</g>
			<g>
				<g>
					<path class="st0" d="M390.7,344.49h11.91v37.87h-21.77c-1.78,0-3.29-0.58-4.49-1.73c-1.22-1.15-1.82-2.58-1.82-4.26
						s0.58-3.04,1.73-4.11c1.15-1.04,2.69-1.58,4.58-1.58h9.86V344.49z M383.93,400.75c-1.33-1.33-1.98-2.91-1.98-4.73
						c0-1.84,0.64-3.42,1.98-4.75c1.31-1.31,2.89-1.95,4.73-1.95s3.42,0.64,4.73,1.95c1.31,1.33,1.98,2.91,1.98,4.75
						c0,1.82-0.67,3.4-1.98,4.73c-1.31,1.31-2.89,1.98-4.73,1.98S385.24,402.06,383.93,400.75z M399.61,400.75
						c-1.31-1.33-1.95-2.91-1.95-4.73c0-1.84,0.64-3.42,1.95-4.75c1.33-1.31,2.91-1.95,4.75-1.95c1.82,0,3.42,0.64,4.73,1.95
						c1.31,1.33,1.98,2.91,1.98,4.75c0,1.82-0.67,3.4-1.98,4.73c-1.31,1.31-2.91,1.98-4.73,1.98
						C402.52,402.73,400.94,402.06,399.61,400.75z"/>
				</g>
			</g>
			<g>
				<g>
					<path class="st0" d="M438.5,370.68v11.68h-21.7v-57.9h11.93v46.22H438.5z"/>
				</g>
			</g>
			<g>
				<g>
					<path class="st0" d="M433.99,372.35c1.18-1.11,2.69-1.67,4.53-1.67h15.77v11.68h-15.77c-1.84,0-3.35-0.56-4.53-1.67
						c-1.2-1.09-1.78-2.49-1.78-4.18S432.79,373.46,433.99,372.35z"/>
				</g>
			</g>
			<g>
				<g>
					<path class="st0" d="M449.76,372.35c1.18-1.11,2.69-1.67,4.53-1.67h15.77v11.68h-15.77c-1.84,0-3.35-0.56-4.53-1.67
						c-1.2-1.09-1.78-2.49-1.78-4.18S448.56,373.46,449.76,372.35z"/>
				</g>
			</g>
			<g>
				<g>
					<path class="st0" d="M465.53,372.35c1.18-1.11,2.69-1.67,4.53-1.67h15.77v11.68h-15.77c-1.84,0-3.35-0.56-4.53-1.67
						c-1.2-1.09-1.78-2.49-1.78-4.18S464.33,373.46,465.53,372.35z"/>
				</g>
			</g>
			<g>
				<g>
					<path class="st0" d="M481.32,372.35c1.18-1.11,2.69-1.67,4.53-1.67h15.77v11.68h-15.77c-1.84,0-3.35-0.56-4.53-1.67
						c-1.2-1.09-1.78-2.49-1.78-4.18S480.13,373.46,481.32,372.35z"/>
				</g>
			</g>
			<g>
				<g>
					<path class="st0" d="M497.09,372.35c1.18-1.11,2.69-1.67,4.53-1.67h15.77v11.68h-15.77c-1.84,0-3.35-0.56-4.53-1.67
						c-1.2-1.09-1.78-2.49-1.78-4.18S495.9,373.46,497.09,372.35z"/>
				</g>
			</g>
			<g>
				<g>
					<path class="st0" d="M557.07,342.05c3.24,2,5.8,4.71,7.66,8.15c1.87,3.46,2.8,7.26,2.8,11.42c0,4.31-0.93,8.04-2.78,11.15
						c-1.82,3.13-4.29,5.51-7.33,7.15c-3.04,1.62-6.4,2.44-10.02,2.44c-2.84,0-5.64-0.49-8.4-1.49c-2.78-1-5.33-2.51-7.71-4.51
						c-1.58,1.95-3.55,3.44-5.95,4.46c-2.4,1.02-5.04,1.53-7.93,1.53c-1.78,0-3.29-0.58-4.49-1.73c-1.22-1.15-1.82-2.58-1.82-4.26
						s0.58-3.04,1.73-4.11c1.15-1.04,2.69-1.58,4.58-1.58c1.69,0,2.98-0.29,3.86-0.91c0.89-0.6,1.53-1.42,1.93-2.49
						c0.4-1.04,0.87-2.67,1.38-4.89c0.53-2.27,0.91-3.73,1.11-4.42c1.62-6,4.2-10.64,7.69-13.95c3.51-3.33,7.75-4.98,12.75-4.98
						C550.18,339.05,553.82,340.05,557.07,342.05z M552.76,368.9c1.91-1.71,2.84-4.13,2.84-7.29c0-3.07-0.87-5.6-2.6-7.62
						c-1.73-2.02-4.02-3.04-6.86-3.04c-2.15,0-3.91,0.73-5.24,2.18c-1.35,1.44-2.53,3.75-3.6,6.91c-0.51,1.51-0.91,3.13-1.18,4.8
						c-0.11,0.38-0.2,0.8-0.29,1.31c-0.07,0.51-0.22,1.07-0.42,1.69c1.53,1.22,3.18,2.13,4.98,2.73c1.78,0.6,3.51,0.91,5.2,0.91
						C548.47,371.48,550.87,370.61,552.76,368.9z M579.59,370.68v11.68c-7.04,0-12.11-1.58-15.19-4.73
						c-3.07-3.15-4.6-7.95-4.6-14.37c0-1.15,0.02-2.04,0.07-2.67h7.57c0,3,0.84,5.38,2.53,7.17
						C571.92,369.7,575.12,370.68,579.59,370.68z"/>
				</g>
			</g>
			<g>
				<g>
					<path class="st0" d="M575.06,372.35c1.18-1.11,2.69-1.67,4.53-1.67h15.77v11.68h-15.77c-1.84,0-3.35-0.56-4.53-1.67
						c-1.2-1.09-1.78-2.49-1.78-4.18S573.86,373.46,575.06,372.35z"/>
				</g>
			</g>
			<g>
				<g>
					<path class="st0" d="M590.85,372.35c1.18-1.11,2.69-1.67,4.53-1.67h15.77v11.68h-15.77c-1.84,0-3.35-0.56-4.53-1.67
						c-1.2-1.09-1.78-2.49-1.78-4.18S589.65,373.46,590.85,372.35z"/>
				</g>
			</g>
			<g>
				<g>
					<path class="st0" d="M606.62,372.35c1.18-1.11,2.69-1.67,4.53-1.67h15.77v11.68h-15.77c-1.84,0-3.35-0.56-4.53-1.67
						c-1.2-1.09-1.78-2.49-1.78-4.18S605.42,373.46,606.62,372.35z"/>
				</g>
			</g>
			<g>
				<g>
					<path class="st0" d="M622.41,372.35c1.18-1.11,2.69-1.67,4.53-1.67h15.77v11.68h-15.77c-1.84,0-3.35-0.56-4.53-1.67
						c-1.2-1.09-1.78-2.49-1.78-4.18S621.21,373.46,622.41,372.35z"/>
				</g>
			</g>
			<g>
				<g>
					<path class="st0" d="M638.18,372.35c1.18-1.11,2.69-1.67,4.53-1.67h15.77v11.68h-15.77c-1.84,0-3.35-0.56-4.53-1.67
						c-1.2-1.09-1.78-2.49-1.78-4.18S636.98,373.46,638.18,372.35z"/>
				</g>
			</g>
			<g>
				<g>
					<path class="st0" d="M653.97,372.35c1.18-1.11,2.69-1.67,4.53-1.67h15.77v11.68H658.5c-1.84,0-3.35-0.56-4.53-1.67
						c-1.2-1.09-1.78-2.49-1.78-4.18S652.77,373.46,653.97,372.35z"/>
				</g>
			</g>
			<g>
				<g>
					<path class="st0" d="M669.74,372.35c1.18-1.11,2.69-1.67,4.53-1.67h15.77v11.68h-15.77c-1.84,0-3.35-0.56-4.53-1.67
						c-1.2-1.09-1.78-2.49-1.78-4.18S668.54,373.46,669.74,372.35z"/>
				</g>
			</g>
			<g>
				<g>
					<path class="st0" d="M685.53,372.35c1.18-1.11,2.69-1.67,4.53-1.67h15.77v11.68h-15.77c-1.84,0-3.35-0.56-4.53-1.67
						c-1.2-1.09-1.78-2.49-1.78-4.18S684.34,373.46,685.53,372.35z"/>
				</g>
			</g>
			<g>
				<g>
					<path class="st0" d="M701.3,372.35c1.18-1.11,2.69-1.67,4.53-1.67h15.77v11.68h-15.77c-1.84,0-3.35-0.56-4.53-1.67
						c-1.2-1.09-1.78-2.49-1.78-4.18S700.11,373.46,701.3,372.35z"/>
				</g>
			</g>
			<g>
				<g>
					<path class="st0" d="M717.07,372.35c1.18-1.11,2.69-1.67,4.53-1.67h15.77v11.68h-15.77c-1.84,0-3.35-0.56-4.53-1.67
						c-1.2-1.09-1.78-2.49-1.78-4.18S715.88,373.46,717.07,372.35z"/>
				</g>
			</g>
			<g>
				<g>
					<path class="st0" d="M732.87,372.35c1.18-1.11,2.69-1.67,4.53-1.67h15.77v11.68H737.4c-1.84,0-3.35-0.56-4.53-1.67
						c-1.2-1.09-1.78-2.49-1.78-4.18S731.67,373.46,732.87,372.35z"/>
				</g>
			</g>
			<g>
				<g>
					<path class="st0" d="M800.59,369.61c0.53,0.51,1.18,0.8,1.93,0.91s1.95,0.16,3.6,0.16v11.68h-52.86
						c-2.11,0-3.75-0.58-4.91-1.73c-1.15-1.15-1.73-2.53-1.73-4.11s0.58-2.93,1.73-4.11c1.15-1.15,2.8-1.73,4.91-1.73h34.72
						c-0.07-0.2-0.11-0.44-0.16-0.71c-0.07-0.27-0.11-0.58-0.18-0.93c-0.67-4-1.58-7.17-2.71-9.51c-1.13-2.35-2.6-4.15-4.38-5.42
						c-3.64-2.51-8.15-3.78-13.57-3.78c-2.95,0-5.91,0.42-8.84,1.27l-1.35-10.97c3.95-1.07,7.86-1.58,11.77-1.58
						c7.15,0,13.44,1.8,18.86,5.44c3.15,2.11,5.71,5,7.64,8.68c1.95,3.66,3.42,8.33,4.42,13.95
						C799.7,368.3,800.06,369.13,800.59,369.61z"/>
				</g>
			</g>
			<g>
				<g>
					<path class="st0" d="M858.83,370.68v11.68h-8.2c0,5.62-1.27,9.88-3.8,12.77c-2.51,2.91-6.13,4.35-10.79,4.35
						c-3.11,0-6.42-0.58-9.95-1.73l2.29-10.26c2.42,0.58,4.31,0.87,5.69,0.87c1.62,0,2.8-0.44,3.55-1.33
						c0.73-0.91,1.09-2.47,1.09-4.66v-37.87h11.93v26.19H858.83z M839.75,335.56c-1.33-1.31-1.98-2.89-1.98-4.73
						s0.64-3.42,1.98-4.73c1.31-1.31,2.89-1.98,4.73-1.98s3.42,0.67,4.73,1.98c1.31,1.31,1.98,2.89,1.98,4.73s-0.67,3.42-1.98,4.73
						c-1.31,1.33-2.89,1.98-4.73,1.98S841.06,336.9,839.75,335.56z"/>
				</g>
			</g>
			<g>
				<g>
					<path class="st0" d="M854.3,372.35c1.18-1.11,2.69-1.67,4.53-1.67h15.77v11.68h-15.77c-1.84,0-3.35-0.56-4.53-1.67
						c-1.2-1.09-1.78-2.49-1.78-4.18S853.1,373.46,854.3,372.35z"/>
				</g>
			</g>
			<g>
				<g>
					<path class="st0" d="M870.09,372.35c1.18-1.11,2.69-1.67,4.53-1.67h15.77v11.68h-15.77c-1.84,0-3.35-0.56-4.53-1.67
						c-1.2-1.09-1.78-2.49-1.78-4.18S868.89,373.46,870.09,372.35z"/>
				</g>
			</g>
			<g>
				<g>
					<path class="st0" d="M885.86,372.35c1.18-1.11,2.69-1.67,4.53-1.67h15.77v11.68h-15.77c-1.84,0-3.35-0.56-4.53-1.67
						c-1.2-1.09-1.78-2.49-1.78-4.18S884.66,373.46,885.86,372.35z"/>
				</g>
			</g>
			<g>
				<g>
					<path class="st0" d="M901.65,372.35c1.18-1.11,2.69-1.67,4.53-1.67h15.77v11.68h-15.77c-1.84,0-3.35-0.56-4.53-1.67
						c-1.2-1.09-1.78-2.49-1.78-4.18S900.45,373.46,901.65,372.35z"/>
				</g>
			</g>
			<g>
				<g>
					<path class="st0" d="M917.42,372.35c1.18-1.11,2.69-1.67,4.53-1.67h15.77v11.68h-15.77c-1.84,0-3.35-0.56-4.53-1.67
						c-1.2-1.09-1.78-2.49-1.78-4.18S916.22,373.46,917.42,372.35z"/>
				</g>
			</g>
			<g>
				<g>
					<path class="st0" d="M933.19,372.35c1.18-1.11,2.69-1.67,4.53-1.67h15.77v11.68h-15.77c-1.84,0-3.35-0.56-4.53-1.67
						c-1.2-1.09-1.78-2.49-1.78-4.18S931.99,373.46,933.19,372.35z"/>
				</g>
			</g>
			<g>
				<g>
					<path class="st0" d="M948.98,372.35c1.18-1.11,2.69-1.67,4.53-1.67h15.77v11.68h-15.77c-1.84,0-3.35-0.56-4.53-1.67
						c-1.2-1.09-1.78-2.49-1.78-4.18S947.78,373.46,948.98,372.35z"/>
				</g>
			</g>
			<g>
				<g>
					<path class="st0" d="M964.75,372.35c1.18-1.11,2.69-1.67,4.53-1.67h15.77v11.68h-15.77c-1.84,0-3.35-0.56-4.53-1.67
						c-1.2-1.09-1.78-2.49-1.78-4.18S963.55,373.46,964.75,372.35z"/>
				</g>
			</g>
			<g>
				<g>
					<path class="st0" d="M980.54,372.35c1.18-1.11,2.69-1.67,4.53-1.67h15.77v11.68h-15.77c-1.84,0-3.35-0.56-4.53-1.67
						c-1.2-1.09-1.78-2.49-1.78-4.18S979.34,373.46,980.54,372.35z"/>
				</g>
			</g>
			<g>
				<g>
					<path class="st0" d="M996.31,372.35c1.18-1.11,2.69-1.67,4.53-1.67h15.77v11.68h-15.77c-1.84,0-3.35-0.56-4.53-1.67
						c-1.2-1.09-1.78-2.49-1.78-4.18S995.11,373.46,996.31,372.35z"/>
				</g>
			</g>
			<g>
				<g>
					<path class="st0" d="M1012.11,372.35c1.18-1.11,2.69-1.67,4.53-1.67h15.77v11.68h-15.77c-1.84,0-3.35-0.56-4.53-1.67
						c-1.2-1.09-1.78-2.49-1.78-4.18S1010.91,373.46,1012.11,372.35z"/>
				</g>
			</g>
			<g>
				<g>
					<path class="st0" d="M1068.1,351.11c4.4,4.69,6.6,11.22,6.6,19.57v11.68h-42.29c-1.84,0-3.29-0.58-4.33-1.73
						c-1.07-1.15-1.58-2.53-1.58-4.11s0.51-2.93,1.58-4.11c1.04-1.15,2.49-1.73,4.33-1.73h30.38c0-6.66-2.18-11.42-6.51-14.24
						c-4.35-2.82-10.62-4.22-18.84-4.22l-2.35-14.84c5.31-4,10.97-7.17,16.99-9.51c6.02-2.33,13.35-4.2,21.99-5.55l1.73,11.66
						c-4.8,0.58-9.51,1.62-14.17,3.09c-4.64,1.47-8.77,3.2-12.35,5.2C1057.44,343.49,1063.72,346.43,1068.1,351.11z"/>
				</g>
			</g>
			<g>
				<g>
					<path class="st0" d="M1112.72,370.68v11.68h-8.2c0,5.62-1.27,9.88-3.8,12.77c-2.51,2.91-6.13,4.35-10.79,4.35
						c-3.11,0-6.42-0.58-9.95-1.73l2.29-10.26c2.42,0.58,4.31,0.87,5.69,0.87c1.62,0,2.8-0.44,3.55-1.33
						c0.73-0.91,1.09-2.47,1.09-4.66v-37.87h11.93v26.19H1112.72z"/>
				</g>
			</g>
			<g>
				<g>
					<path class="st0" d="M1108.21,372.35c1.18-1.11,2.69-1.67,4.53-1.67h15.77v11.68h-15.77c-1.84,0-3.35-0.56-4.53-1.67
						c-1.2-1.09-1.78-2.49-1.78-4.18S1107.01,373.46,1108.21,372.35z"/>
				</g>
			</g>
			<g>
				<g>
					<path class="st0" d="M1168.16,342.05c3.24,2,5.8,4.71,7.66,8.15c1.87,3.46,2.8,7.26,2.8,11.42c0,4.31-0.93,8.04-2.78,11.15
						c-1.82,3.13-4.29,5.51-7.33,7.15c-3.04,1.62-6.4,2.44-10.02,2.44c-2.84,0-5.64-0.49-8.4-1.49c-2.78-1-5.33-2.51-7.71-4.51
						c-1.58,1.95-3.55,3.44-5.95,4.46c-2.4,1.02-5.04,1.53-7.93,1.53c-1.78,0-3.29-0.58-4.49-1.73c-1.22-1.15-1.82-2.58-1.82-4.26
						s0.58-3.04,1.73-4.11c1.16-1.04,2.69-1.58,4.58-1.58c1.69,0,2.98-0.29,3.86-0.91c0.89-0.6,1.53-1.42,1.93-2.49
						c0.4-1.04,0.87-2.67,1.38-4.89c0.53-2.27,0.91-3.73,1.11-4.42c1.62-6,4.2-10.64,7.69-13.95c3.51-3.33,7.75-4.98,12.75-4.98
						C1161.28,339.05,1164.92,340.05,1168.16,342.05z M1163.85,368.9c1.91-1.71,2.84-4.13,2.84-7.29c0-3.07-0.87-5.6-2.6-7.62
						c-1.73-2.02-4.02-3.04-6.86-3.04c-2.15,0-3.91,0.73-5.24,2.18c-1.35,1.44-2.53,3.75-3.6,6.91c-0.51,1.51-0.91,3.13-1.18,4.8
						c-0.11,0.38-0.2,0.8-0.29,1.31c-0.07,0.51-0.22,1.07-0.42,1.69c1.53,1.22,3.18,2.13,4.98,2.73c1.78,0.6,3.51,0.91,5.2,0.91
						C1159.57,371.48,1161.96,370.61,1163.85,368.9z"/>
				</g>
			</g>
			<path class="st1" d="M373.78,478.86c1.82,1.67,4.18,2.51,7.06,2.51v11.68c-4.84,0-8.95-1-12.35-3c-3.4-2-5.89-4.86-7.46-8.6
				c-2.84,6.69-8.04,10.02-15.61,10.02c-3.07,0-5.91-0.8-8.57-2.4c-2.64-1.62-4.78-3.86-6.37-6.8c-1.62-2.91-2.42-6.22-2.42-9.91
				c0-4.58,1.13-8.6,3.35-12.06c2.24-3.49,5.33-6.15,9.28-8.02c3.93-1.87,8.37-2.8,13.33-2.8c1.89,0,3.6,0.11,5.13,0.31v-3.62h11.91
				v25.1C371.05,474.64,371.96,477.17,373.78,478.86z M340.35,439.64c-1.31-1.31-1.95-2.89-1.95-4.73c0-1.84,0.64-3.42,1.95-4.73
				c1.33-1.31,2.91-1.98,4.75-1.98c1.82,0,3.42,0.67,4.73,1.98s1.98,2.89,1.98,4.73c0,1.84-0.67,3.42-1.98,4.73
				c-1.31,1.31-2.91,1.98-4.73,1.98C343.26,441.61,341.68,440.95,340.35,439.64z M356.25,476.33c1.93-2.42,2.89-5.71,2.89-9.86
				v-5.38c-1.73-0.27-3.29-0.38-4.66-0.38c-4.24,0-7.77,1.02-10.53,3.11c-2.75,2.07-4.13,4.89-4.13,8.4c0,2.49,0.8,4.38,2.44,5.73
				c1.62,1.33,3.73,2,6.31,2C351.77,479.95,354.34,478.75,356.25,476.33z M356.05,439.64c-1.31-1.31-1.95-2.89-1.95-4.73
				c0-1.84,0.64-3.42,1.95-4.73c1.33-1.31,2.91-1.98,4.75-1.98c1.82,0,3.4,0.67,4.73,1.98c1.31,1.31,1.95,2.89,1.95,4.73
				c0,1.84-0.64,3.42-1.95,4.73c-1.33,1.31-2.91,1.98-4.73,1.98C358.96,441.61,357.39,440.95,356.05,439.64z"/>
			<path class="st1" d="M414.78,481.37v11.68c-8.37,0-14.04-2.31-16.97-6.95c-1.89,2.22-4.29,3.93-7.15,5.13
				c-2.87,1.22-6.13,1.82-9.82,1.82c-1.78,0-3.29-0.58-4.49-1.73c-1.22-1.15-1.82-2.58-1.82-4.26s0.58-3.04,1.73-4.11
				c1.15-1.04,2.69-1.58,4.58-1.58c2.89,0,5.26-0.84,7.11-2.51c1.84-1.69,2.75-4.22,2.75-7.57v-16.1h11.91v16.1
				c0,3,0.84,5.38,2.53,7.17C407.1,480.39,410.29,481.37,414.78,481.37z M384,511.51c-1.31-1.31-1.98-2.89-1.98-4.73
				s0.67-3.42,1.98-4.73s2.89-1.98,4.73-1.98c1.84,0,3.42,0.67,4.73,1.98c1.33,1.31,1.98,2.89,1.98,4.73s-0.64,3.42-1.98,4.73
				c-1.31,1.31-2.89,1.98-4.73,1.98C386.88,513.49,385.31,512.82,384,511.51z M399.7,511.51c-1.31-1.31-1.98-2.89-1.98-4.73
				s0.67-3.42,1.98-4.73s2.89-1.98,4.73-1.98c1.84,0,3.42,0.67,4.73,1.98s1.98,2.89,1.98,4.73s-0.67,3.42-1.98,4.73
				c-1.31,1.31-2.89,1.98-4.73,1.98C402.59,513.49,401.01,512.82,399.7,511.51z"/>
			<path class="st1" d="M492.03,481.37v11.68c-8.11,0-13.68-2.2-16.73-6.62c-1.91,2.09-4.33,3.73-7.26,4.89
				c-2.95,1.15-6.22,1.73-9.8,1.73h-43.47c-1.84,0-3.35-0.56-4.53-1.67c-1.2-1.09-1.78-2.49-1.78-4.18s0.58-3.07,1.78-4.18
				c1.18-1.11,2.69-1.67,4.53-1.67h4.11v-31.63h11.84v11.59c2.2-3.8,5.22-6.66,9.06-8.6c3.84-1.95,8.4-2.93,13.66-2.93
				c4.84,0,9.28,1.02,13.33,3.09c4.04,2.04,7.26,4.86,9.62,8.44c2.38,3.58,3.58,7.57,3.64,11.99c0.31,2.15,1.11,3.86,2.35,5.13
				C484.35,480.39,487.57,481.37,492.03,481.37z M468.11,473.64c0-3.58-1.31-6.46-3.93-8.64c-2.64-2.18-6.22-3.27-10.73-3.27
				c-3.91,0-7.55,0.78-10.97,2.35c-3.42,1.58-6.22,3.8-8.37,6.66c-2.15,2.89-3.31,6.17-3.46,9.91v0.71h27.61
				C464.82,481.37,468.11,478.79,468.11,473.64z"/>
			<path class="st1" d="M487.5,483.04c1.18-1.11,2.69-1.67,4.53-1.67h15.77v11.68h-15.77c-1.84,0-3.35-0.56-4.53-1.67
				c-1.2-1.09-1.78-2.49-1.78-4.18S486.3,484.15,487.5,483.04z"/>
			<path class="st1" d="M503.27,483.04c1.18-1.11,2.69-1.67,4.53-1.67h15.77v11.68H507.8c-1.84,0-3.35-0.56-4.53-1.67
				c-1.2-1.09-1.78-2.49-1.78-4.18S502.07,484.15,503.27,483.04z"/>
			<path class="st1" d="M578.34,481.37v11.68h-54.66c-2.11,0-3.75-0.58-4.91-1.73c-1.15-1.15-1.73-2.53-1.73-4.11
				s0.58-2.93,1.73-4.11c1.16-1.15,2.8-1.73,4.91-1.73h34.72c-0.07-0.2-0.11-0.44-0.16-0.71c-0.07-0.27-0.11-0.58-0.18-0.93
				c-0.67-4-1.58-7.17-2.71-9.51c-1.13-2.35-2.6-4.15-4.38-5.42c-3.64-2.51-8.15-3.78-13.57-3.78c-2.95,0-5.91,0.42-8.84,1.27
				l-1.35-10.97c3.95-1.07,7.86-1.58,11.77-1.58c7.15,0,13.44,1.8,18.86,5.44c3.15,2.11,5.71,5,7.64,8.68
				c1.95,3.66,3.42,8.33,4.42,13.95c0.22,1.18,0.58,2,1.07,2.49c0.51,0.51,1.15,0.8,1.93,0.91c0.8,0.11,1.98,0.16,3.55,0.16h0.09
				H578.34z M544.83,442.32c-1.33-1.31-1.98-2.89-1.98-4.73c0-1.84,0.64-3.42,1.98-4.75c1.31-1.31,2.89-1.95,4.73-1.95
				s3.42,0.64,4.73,1.95c1.31,1.33,1.98,2.91,1.98,4.75c0,1.84-0.67,3.42-1.98,4.73c-1.31,1.31-2.89,1.98-4.73,1.98
				S546.14,443.63,544.83,442.32z"/>
			<path class="st1" d="M573.81,483.04c1.18-1.11,2.69-1.67,4.53-1.67h15.77v11.68h-15.77c-1.84,0-3.35-0.56-4.53-1.67
				c-1.2-1.09-1.78-2.49-1.78-4.18S572.61,484.15,573.81,483.04z"/>
			<path class="st1" d="M589.58,483.04c1.18-1.11,2.69-1.67,4.53-1.67h15.77v11.68h-15.77c-1.84,0-3.35-0.56-4.53-1.67
				c-1.2-1.09-1.78-2.49-1.78-4.18S588.38,484.15,589.58,483.04z"/>
			<path class="st1" d="M605.37,483.04c1.18-1.11,2.69-1.67,4.53-1.67h15.77v11.68h-15.77c-1.84,0-3.35-0.56-4.53-1.67
				c-1.2-1.09-1.78-2.49-1.78-4.18S604.17,484.15,605.37,483.04z"/>
			<path class="st1" d="M621.14,483.04c1.18-1.11,2.69-1.67,4.53-1.67h15.77v11.68h-15.77c-1.84,0-3.35-0.56-4.53-1.67
				c-1.2-1.09-1.78-2.49-1.78-4.18S619.94,484.15,621.14,483.04z"/>
			<path class="st1" d="M636.94,483.04c1.18-1.11,2.69-1.67,4.53-1.67h15.77v11.68h-15.77c-1.84,0-3.35-0.56-4.53-1.67
				c-1.2-1.09-1.78-2.49-1.78-4.18S635.74,484.15,636.94,483.04z"/>
			<path class="st1" d="M652.71,483.04c1.18-1.11,2.69-1.67,4.53-1.67h15.77v11.68h-15.77c-1.84,0-3.35-0.56-4.53-1.67
				c-1.2-1.09-1.78-2.49-1.78-4.18S651.51,484.15,652.71,483.04z"/>
			<path class="st1" d="M755.1,481.37v11.68h-24.48c-3.51,0-6.44-0.53-8.75-1.62c-2.31-1.07-4.13-2.69-5.44-4.84
				c-1.58,2.04-3.44,3.64-5.6,4.78c-2.18,1.13-4.51,1.69-7.04,1.69h-30.76c-1.84,0-3.35-0.56-4.53-1.67
				c-1.2-1.09-1.78-2.49-1.78-4.18s0.58-3.07,1.78-4.18c1.18-1.11,2.69-1.67,4.53-1.67h9.86v-29.03h11.91v29.03h7.42
				c4.49,0,6.71-3.35,6.71-10.08v-18.95h11.93v18.95c0,3.46,0.67,6.02,2,7.64c1.35,1.64,3.42,2.44,6.2,2.44h5.93v-31.63h11.91v31.63
				H755.1z M698.59,442.23c-1.31-1.31-1.98-2.89-1.98-4.73s0.67-3.42,1.98-4.73c1.31-1.31,2.89-1.98,4.73-1.98
				c1.84,0,3.42,0.67,4.73,1.98c1.31,1.31,1.98,2.89,1.98,4.73s-0.67,3.42-1.98,4.73c-1.31,1.31-2.89,1.98-4.73,1.98
				C701.48,444.21,699.91,443.54,698.59,442.23z M722.18,442.23c-1.31-1.31-1.98-2.89-1.98-4.73s0.67-3.42,1.98-4.73
				c1.31-1.31,2.89-1.98,4.73-1.98s3.42,0.67,4.73,1.98c1.33,1.31,1.98,2.89,1.98,4.73s-0.64,3.42-1.98,4.73
				c-1.31,1.31-2.89,1.98-4.73,1.98S723.49,443.54,722.18,442.23z M710.57,428.91c-1.31-1.31-1.98-2.89-1.98-4.73
				c0-1.84,0.67-3.42,1.98-4.73c1.31-1.31,2.89-1.98,4.73-1.98c1.84,0,3.42,0.67,4.73,1.98c1.33,1.31,1.98,2.89,1.98,4.73
				c0,1.84-0.64,3.42-1.98,4.73c-1.31,1.31-2.89,1.98-4.73,1.98C713.45,430.88,711.88,430.22,710.57,428.91z"/>
			<path class="st1" d="M764.94,435.15h11.91v57.9h-21.77c-1.84,0-3.35-0.56-4.53-1.67c-1.2-1.09-1.78-2.49-1.78-4.18
				s0.58-3.07,1.78-4.18c1.18-1.11,2.69-1.67,4.53-1.67h9.86V435.15z"/>
			<path class="st1" d="M785.22,435.15h11.93v57.9h-11.93V435.15z"/>
			<path class="st1" d="M835.28,490.21c-4.18-1.89-7.53-4.6-10.02-8.13c-2.51-3.51-3.75-7.62-3.75-12.3c0-3.27,0.71-6.82,2.13-10.66
				h11.13c-1,3.33-1.51,6.2-1.51,8.62c0,4.31,1.33,7.66,4,10.06c2.64,2.38,6.53,3.58,11.64,3.58h30.85v-26.19h11.91v37.87H848.9
				C843.99,493.05,839.46,492.1,835.28,490.21z M843.92,447.68c-1.31-1.31-1.98-2.89-1.98-4.73s0.67-3.42,1.98-4.73
				c1.31-1.31,2.89-1.98,4.73-1.98c1.84,0,3.42,0.67,4.73,1.98s1.98,2.89,1.98,4.73s-0.67,3.42-1.98,4.73
				c-1.31,1.33-2.89,1.98-4.73,1.98C846.81,449.65,845.23,449.01,843.92,447.68z M859.63,447.68c-1.31-1.31-1.98-2.89-1.98-4.73
				s0.67-3.42,1.98-4.73c1.31-1.31,2.89-1.98,4.73-1.98c1.84,0,3.42,0.67,4.73,1.98s1.98,2.89,1.98,4.73s-0.67,3.42-1.98,4.73
				c-1.31,1.33-2.89,1.98-4.73,1.98C862.51,449.65,860.94,449.01,859.63,447.68z"/>
			<path class="st1" d="M921.73,481.37v11.68h-21.7v-57.9h11.93v46.22H921.73z"/>
			<path class="st1" d="M917.2,483.04c1.18-1.11,2.69-1.67,4.53-1.67h15.77v11.68h-15.77c-1.84,0-3.35-0.56-4.53-1.67
				c-1.2-1.09-1.78-2.49-1.78-4.18S916,484.15,917.2,483.04z"/>
			<path class="st1" d="M932.97,483.04c1.18-1.11,2.69-1.67,4.53-1.67h15.77v11.68H937.5c-1.84,0-3.35-0.56-4.53-1.67
				c-1.2-1.09-1.78-2.49-1.78-4.18S931.77,484.15,932.97,483.04z"/>
			<path class="st1" d="M963.15,455.18h11.91v37.87h-21.77c-1.78,0-3.29-0.58-4.49-1.73c-1.22-1.15-1.82-2.58-1.82-4.26
				s0.58-3.04,1.73-4.11c1.15-1.04,2.69-1.58,4.58-1.58h9.86V455.18z M964.11,446.1c-1.33-1.31-1.98-2.89-1.98-4.73
				s0.64-3.42,1.98-4.73c1.31-1.31,2.89-1.98,4.73-1.98c1.84,0,3.42,0.67,4.73,1.98s1.98,2.89,1.98,4.73s-0.67,3.42-1.98,4.73
				c-1.31,1.33-2.89,1.98-4.73,1.98C966.99,448.08,965.42,447.43,964.11,446.1z"/>
			<path class="st1" d="M1005.6,481.37v11.68h-21.7v-57.9h11.93v46.22H1005.6z"/>
			<path class="st1" d="M1001.07,483.04c1.18-1.11,2.69-1.67,4.53-1.67h15.77v11.68h-15.77c-1.84,0-3.35-0.56-4.53-1.67
				c-1.2-1.09-1.78-2.49-1.78-4.18S999.87,484.15,1001.07,483.04z"/>
			<path class="st1" d="M1016.84,483.04c1.18-1.11,2.69-1.67,4.53-1.67h15.77v11.68h-15.77c-1.84,0-3.35-0.56-4.53-1.67
				c-1.2-1.09-1.78-2.49-1.78-4.18S1015.64,484.15,1016.84,483.04z"/>
			<path class="st1" d="M1071.1,481.37v11.68c-8.37,0-14.04-2.31-16.97-6.95c-1.89,2.22-4.29,3.93-7.15,5.13
				c-2.87,1.22-6.13,1.82-9.82,1.82c-1.78,0-3.29-0.58-4.49-1.73c-1.22-1.15-1.82-2.58-1.82-4.26s0.58-3.04,1.73-4.11
				c1.15-1.04,2.69-1.58,4.58-1.58c2.89,0,5.26-0.84,7.11-2.51c1.84-1.69,2.75-4.22,2.75-7.57v-16.1h11.91v16.1
				c0,3,0.84,5.38,2.53,7.17C1063.41,480.39,1066.61,481.37,1071.1,481.37z M1040.31,511.51c-1.31-1.31-1.98-2.89-1.98-4.73
				s0.67-3.42,1.98-4.73c1.31-1.31,2.89-1.98,4.73-1.98s3.42,0.67,4.73,1.98c1.33,1.31,1.98,2.89,1.98,4.73s-0.64,3.42-1.98,4.73
				c-1.31,1.31-2.89,1.98-4.73,1.98S1041.62,512.82,1040.31,511.51z M1056.02,511.51c-1.31-1.31-1.98-2.89-1.98-4.73
				s0.67-3.42,1.98-4.73s2.89-1.98,4.73-1.98c1.84,0,3.42,0.67,4.73,1.98c1.31,1.31,1.98,2.89,1.98,4.73s-0.67,3.42-1.98,4.73
				c-1.31,1.31-2.89,1.98-4.73,1.98C1058.9,513.49,1057.33,512.82,1056.02,511.51z"/>
			<path class="st1" d="M1105.01,481.37v11.68c-8.37,0-14.04-2.31-16.97-6.95c-1.89,2.22-4.29,3.93-7.15,5.13
				c-2.87,1.22-6.13,1.82-9.82,1.82c-1.78,0-3.29-0.58-4.49-1.73c-1.22-1.15-1.82-2.58-1.82-4.26s0.58-3.04,1.73-4.11
				c1.16-1.04,2.69-1.58,4.58-1.58c2.89,0,5.26-0.84,7.11-2.51c1.84-1.69,2.75-4.22,2.75-7.57v-16.1h11.91v16.1
				c0,3,0.84,5.38,2.53,7.17C1097.33,480.39,1100.53,481.37,1105.01,481.37z M1082.45,511.44c-1.33-1.33-1.98-2.91-1.98-4.73
				c0-1.84,0.64-3.42,1.98-4.75c1.31-1.31,2.89-1.95,4.73-1.95c1.84,0,3.42,0.64,4.73,1.95c1.31,1.33,1.98,2.91,1.98,4.75
				c0,1.82-0.67,3.4-1.98,4.73c-1.31,1.31-2.89,1.98-4.73,1.98C1085.34,513.42,1083.76,512.75,1082.45,511.44z"/>
			<path class="st1" d="M1100.48,483.04c1.18-1.11,2.69-1.67,4.53-1.67h15.77v11.68h-15.77c-1.84,0-3.35-0.56-4.53-1.67
				c-1.2-1.09-1.78-2.49-1.78-4.18S1099.28,484.15,1100.48,483.04z"/>
			<path class="st1" d="M1116.25,483.04c1.18-1.11,2.69-1.67,4.53-1.67h15.77v11.68h-15.77c-1.84,0-3.35-0.56-4.53-1.67
				c-1.2-1.09-1.78-2.49-1.78-4.18S1115.05,484.15,1116.25,483.04z"/>
			<path class="st1" d="M1146.44,435.15h11.91v57.9h-21.77c-1.84,0-3.35-0.56-4.53-1.67c-1.2-1.09-1.78-2.49-1.78-4.18
				s0.58-3.07,1.78-4.18c1.18-1.11,2.69-1.67,4.53-1.67h9.86V435.15z"/>
			<path class="st1" d="M1166.72,435.15h11.93v57.9h-11.93V435.15z"/>
		</g>
	</g>
	<path class="st0" d="M782.6,550.18h96.4c53.59,0,73.94,33.83,73.94,68.55c0,34.73-20.36,68.55-73.94,68.55H829.6v76.64h-47V550.18z
		 M829.6,650.76h36.52c21.55,0,41.31-4.79,41.31-32.03c0-27.24-19.76-32.03-41.31-32.03H829.6V650.76z"/>
	<path class="st1" d="M1592.57,711.07h-27.68l-0.18-1.33c-1.61-15.84-3.52-32.51-5.36-48.62c-3.35-29.28-6.82-59.56-8.88-87.94
		l0-0.1c-0.09-1.27-0.18-2.61-0.28-3.94l-0.11-1.45h0.16l-0.57-13.58l-0.29-4.46h40.32v3.93l0.48,8.89l0.45,4.94h-0.18l0.34,6.31
		c0.22,2.32,0.46,4.82,0.71,7.42c3.83,40.05,9.62,100.59,1.37,128.98L1592.57,711.07z M1567.28,708.37h23.25
		c7.7-28.35,1.81-89.99-1.73-126.99c-0.25-2.6-0.49-5.1-0.71-7.48l-0.5-9.21h0.08l-0.19-2.04l-0.49-9.01l0-1.29h-34.73l0.11,1.61
		l0.69,16.43h-0.08c0.06,0.85,0.12,1.71,0.18,2.57l0,0.09c2.05,28.26,5.52,58.51,8.87,87.76
		C1563.83,676.58,1565.7,692.87,1567.28,708.37z"/>
	<path class="st1" d="M1321.11,637.58l0.15-2.06c1.1-15.05-8.29-21.09-8.69-21.35l-2.05-1.28l2.16-1.08
		c17.15-8.55,27.35-15.77,41.48-25.77l3.53-2.5l3.79-24.23c0.54-3.48,1.15-7.74,1.8-12.24c0.54-3.76,1.12-7.8,1.74-11.98l0.2-1.36
		l1.36,0.22c0.32,0.05,32.07,5.32,37.73,6.19l1.37,0.21l-0.25,1.37c-7.37,40.39-12.01,58.37-15.92,61.54
		c-7.93,11.01-25.68,20.75-52.75,28.95c-3.2,1.42-6.2,2.32-9.11,3.2c-1.61,0.48-3.12,0.94-4.61,1.47L1321.11,637.58z
		 M1315.81,613.27c2.96,2.61,8.44,9,8.24,20.44c0.93-0.3,1.87-0.58,2.84-0.87c2.85-0.86,5.79-1.74,8.86-3.11l0.16-0.06
		c26.3-7.96,44.12-17.68,51.54-28.12l0.14-0.2l0.2-0.14c3.03-2.04,7.99-21.75,14.74-58.59c-7.14-1.14-29.31-4.81-35.03-5.76
		c-0.55,3.69-1.06,7.26-1.54,10.6c-0.65,4.51-1.26,8.78-1.8,12.27l0,0l-3.97,25.36l-4.47,3.16
		C1342.03,597.94,1331.99,605.04,1315.81,613.27z"/>
	<path class="st2" d="M1601.17,497.94c0.31,2.49,0.57,4.96,0.83,7.41h-10.06l0.01-2.88c0-0.02,0.16-1.75,0.02-4.53H1601.17
		L1601.17,497.94z"/>
	<path class="st2" d="M1599.57,486.37c0.26,1.68,0.52,3.36,0.75,5.04l-9.14,0c-0.29-1.59-0.69-3.28-1.22-5.03H1599.57
		L1599.57,486.37z"/>
	<path class="st2" d="M1437.66,455.5l5.7-0.55c0.55,0.62,1.12,1.23,1.7,1.82l-4.4,2.26c-0.89-0.95-1.72-1.92-2.52-2.93
		L1437.66,455.5L1437.66,455.5z"/>
	<path class="st2" d="M1450.25,459.16c2.16,1.27,4.43,2.37,6.79,3.28l-2.64,4.06c-3.23-1.33-6.31-2.98-9.18-4.9L1450.25,459.16
		L1450.25,459.16z"/>
	<path class="st2" d="M1463.49,464.41c3.18,0.72,6.47,1.13,9.86,1.16l0.26,4.75c-4.71-0.03-9.26-0.69-13.58-1.9L1463.49,464.41
		L1463.49,464.41z"/>
	<path class="st2" d="M1474,477.41h-0.09c-6.62,0-12.99-1.1-18.93-3.13l3.12-3.62c4.96,1.51,10.22,2.33,15.66,2.35L1474,477.41
		L1474,477.41z"/>
	<path class="st2" d="M1450.48,472.53c-4.48-1.96-8.67-4.46-12.48-7.43l4.46-2.16c3.24,2.31,6.74,4.28,10.46,5.84L1450.48,472.53
		L1450.48,472.53z"/>
	<path class="st2" d="M1434.14,462.38c-0.53-0.61-1.05-1.23-1.54-1.86c-1.14-1.43-2.21-2.91-3.22-4.43
		c1.69-0.13,3.38-0.24,5.11-0.34c0.49,0.69,1.01,1.37,1.54,2.03c0.69,0.86,1.41,1.71,2.15,2.53L1434.14,462.38L1434.14,462.38z"/>
	<path class="st2" d="M1474.65,489.17l-0.74,0c-9.61,0-18.76-1.93-27.1-5.41l3.51-4.07c7.32,2.84,15.28,4.4,23.59,4.4l0.46,0
		L1474.65,489.17L1474.65,489.17z"/>
	<path class="st2" d="M1488.4,464.41l3.57,3.93c-4.29,1.33-8.82,2.11-13.53,2.26l0.13-4.76
		C1481.96,465.71,1485.25,465.22,1488.4,464.41L1488.4,464.41z"/>
	<path class="st2" d="M1478.24,477.69l0.12-4.41c5.44-0.16,10.68-1.12,15.59-2.77l3.21,3.53c-5.89,2.19-12.22,3.46-18.84,3.64
		L1478.24,477.69L1478.24,477.69z"/>
	<path class="st2" d="M1477.91,489.46l0.15-5.09l0.46-0.01c8.31-0.22,16.23-2,23.47-5.03l3.62,3.97
		c-8.24,3.71-17.34,5.88-26.95,6.14L1477.91,489.46L1477.91,489.46z"/>
	<path class="st2" d="M1443.99,482.51c-6.45-3.04-12.37-7.03-17.58-11.79l4.96-2.41c4.61,3.98,9.8,7.32,15.41,9.89L1443.99,482.51
		L1443.99,482.51z"/>
	<path class="st2" d="M1423.4,467.89l-0.02-0.03c-2.62-3.29-4.95-6.82-6.95-10.53l0.06-0.01l0,0.03c1.86-0.23,3.67-0.43,5.44-0.61
		c1.61,2.78,3.43,5.44,5.44,7.95c0.22,0.28,0.44,0.55,0.66,0.83L1423.4,467.89L1423.4,467.89z"/>
	<path class="st2" d="M1511.99,455.61l-0.45,0.68c-0.77,1.13-1.58,2.23-2.44,3.3l-4.84-2.04c0.57-0.67,1.12-1.36,1.65-2.06
		L1511.99,455.61L1511.99,455.61z"/>
	<path class="st2" d="M1499.42,459.78l5.26,1.88c-2.64,2.23-5.51,4.21-8.58,5.88l-3.07-3.75
		C1495.27,462.62,1497.41,461.28,1499.42,459.78L1499.42,459.78z"/>
	<path class="st2" d="M1500.66,473.1l-2.84-3.46c3.52-1.96,6.79-4.3,9.75-6.96l4.67,1.66
		C1508.78,467.71,1504.89,470.66,1500.66,473.1L1500.66,473.1z"/>
	<path class="st2" d="M1515.55,462.22l-4.19-1.76c0.68-0.88,1.33-1.77,1.96-2.69c0.48-0.7,0.94-1.42,1.38-2.14
		c1.74-0.03,3.43-0.04,5.13-0.04c-0.88,1.6-1.84,3.15-2.87,4.66C1516.5,460.92,1516.03,461.57,1515.55,462.22L1515.55,462.22z"/>
	<path class="st2" d="M1508.2,482.31l-3.26-3.97c5.29-3.17,10.09-7.06,14.23-11.52l5.2,1.85
		C1519.72,473.97,1514.28,478.58,1508.2,482.31L1508.2,482.31z"/>
	<path class="st2" d="M1526.67,466.91l-4.8-2.02c0.2-0.29,0.4-0.58,0.6-0.87c1.81-2.66,3.42-5.44,4.83-8.34
		c1.78,0.05,3.6,0.11,5.47,0.2l0-0.03l0.06,0c-1.72,3.86-3.78,7.55-6.15,11.03L1526.67,466.91L1526.67,466.91z"/>
	<path class="st2" d="M1271.76,622.22l-5.95,16.05c-0.51,7.86,8.64,7.62,14.8,8.2c0,0,4.47,2.99,7.44,2.45
		c6.24-1.13-0.36-8.62-1.89-10.55c0,0-0.43-2.85,3.02-4.95c7.31-4.46,15.33,14.53,27.83,0.22c2.43-7.2-6.09-15.6-6.09-15.6
		c-18.68,6.8-27.21-19.94-50.09,4.58c-2.36,2.54-4.66,18.82-4.66,18.82c2.34,3.44,7.13-8.33,7.36-9.45
		C1264.44,627.51,1271.76,622.22,1271.76,622.22L1271.76,622.22L1271.76,622.22z"/>
	<path class="st2" d="M1484.98,227.44c-1.8,5.27-2.99,14.55-2.99,25.13v0.49c-0.86-0.91-1.74-1.82-2.66-2.73
		c-7.7-7.7-15.34-13.54-20.34-15.87c2.32,5,8.16,12.63,15.87,20.34c0.91,0.91,1.82,1.8,2.73,2.66c-10.88-0.19-20.41,0.92-25.62,2.72
		c4.8,1.85,13.39,3.22,23.37,3.55c-8.59,6.69-15.31,13.54-18.23,18.21c5.25-1.69,13.55-6.54,22.14-13.24
		c1.17-0.92,2.32-1.84,3.43-2.76h4.82h0.18v0.15c1.05,0.87,2.13,1.74,3.24,2.61c8.59,6.7,16.89,11.55,22.14,13.24
		c-2.92-4.67-9.65-11.52-18.23-18.21c9.97-0.33,18.56-1.7,23.37-3.55c-5.2-1.8-14.74-2.91-25.62-2.72c0.9-0.86,1.82-1.74,2.73-2.66
		c7.71-7.71,13.55-15.34,15.87-20.34c-5,2.32-12.63,8.16-20.34,15.87c-0.91,0.91-1.8,1.83-2.66,2.73v-0.49
		c0-10.57-1.2-19.86-2.99-25.13H1484.98L1484.98,227.44z"/>
	<polygon class="st2" points="1482.98,267.14 1487.2,267.14 1487.2,308.22 1482.98,308.22 1482.98,267.14 	"/>
	<path class="st1" d="M1432.75,274.14c-1.16-13.99-1.44-57.96,40.44-61.67c1.12-18.7,22.94-18.7,24.05,0
		c41.89,3.71,41.61,47.69,40.44,61.67h-5.61c1.11-12.39,1.97-54.44-37.73-56.28c-1.54-0.07-2.73-1.37-2.67-2.91v-0.04l0,0
		c0.85-14.44-13.77-14.44-12.92,0h0l0,0.04c0.07,1.54-1.13,2.84-2.67,2.91c-39.69,1.83-38.84,43.88-37.73,56.28H1432.75
		L1432.75,274.14z"/>
	<path class="st2" d="M1453.63,370.17l-3.99,0.07c-1.97-1.71-4.56-2.73-7.36-2.68c-3.29,0.06-6.21,1.56-8.18,3.89
		c2.04,2.27,5.02,3.67,8.31,3.61c2.75-0.05,5.26-1.12,7.15-2.84l4.1-0.07L1453.63,370.17L1453.63,370.17z"/>
	<path class="st1" d="M1599.58,479.94h-12.37l-0.22-0.48c-3.03-6.55-7.6-11.93-13.58-16c-5.77-3.23-13.18-6.03-21.96-8.28
		l-10.66-2.34c-24.27-4.53-48.78-4.12-49.02-4.11l-0.84,0.02l0-0.84c0-0.22,0-22.13,2.05-37.47c0.79-5.95,4.37-14.8,10.62-26.3
		c0.36-0.86,0.96-1.94,1.79-3.23c0.63-1.13,1.28-2.26,1.92-3.35c2.28-4.44,3.23-8.59,2.79-12.32c-0.42-3.6-3.27-6.44-6.63-6.61
		c-2.6-0.11-3.6,0.67-3.61,0.68l-0.9,0.7l-6.05,11.03c-0.8,1.46-2.37,3.23-4.16,3.4c-1.57,0.13-2.89-0.53-3.89-1.35
		c-1.27-1.04-2.1-2.51-2.62-4.06c-2.67-8.01-7.51-11.71-12.46-14.42c-2.21-1.21-6.11-2.15-8.63-2.15c-2.42,0-4.61-0.01-6.67-0.01
		c-8.68-0.03-14.94-0.05-25.99,0.52l-1.17,0.06l0.34-1.12c4.76-15.87,15.47-26.76,31.82-32.37c30.09-10.33,64.74,1.25,84.26,28.14
		c27.81,38.31,50.58,101.95,55.69,131.3L1599.58,479.94z M1588.27,478.28h9.34c-5.4-29.61-27.86-91.96-55.23-129.65l0,0
		c-19.1-26.31-52.98-37.64-82.39-27.55c-15.43,5.3-25.66,15.44-30.42,30.16c10.37-0.51,16.52-0.49,24.9-0.46
		c2.06,0.01,4.25,0.01,6.67,0.01c2.03,0,7.07,1.09,8.9,2.07c3.59,1.92,11.07,5.92,14.16,17.04l0,0c0.03,0,1.81,3.12,4.37,2.88
		c1.02-0.1,2.21-1.35,2.86-2.55l6.35-11.44l1-0.78c0.1-0.09,1.41-1.22,4.68-1.05c4.21,0.21,7.73,3.68,8.25,8.07
		c0.48,4.06-0.52,8.54-2.98,13.31c-0.65,1.12-1.3,2.25-1.94,3.4c-0.8,1.25-1.37,2.27-1.72,3.11c-6.19,11.39-9.7,20.04-10.47,25.8
		c-1.81,13.53-2.01,32.26-2.03,36.41c4.52-0.02,26.61,0.06,48.53,4.15l10.72,2.35c8.95,2.29,16.49,5.14,22.45,8.48
		C1580.42,466.23,1585.11,471.67,1588.27,478.28z"/>
	<path class="st1" d="M1382.56,525.38l-0.49-0.09l3.45-19.17l1.82-20.07l0.15-0.05l20.97-7.28l-3.83,17.77l0.05-0.03l-0.12,0.41
		l13.47,14.08l20.28,5.32l12.62-15.1l0.38,0.32l-12.82,15.34l-0.15-0.04l-20.57-5.39l-0.05-0.05l-13.32-13.93l-6.59,21.69
		l-11.89-12.44L1382.56,525.38z M1386.19,506.23l11.4,11.94l6.3-20.73L1386.19,506.23z M1387.82,486.42l-1.75,19.31l18.01-8.95
		l3.73-17.29L1387.82,486.42z"/>
	
		<rect x="1370.82" y="506.01" transform="matrix(0.9999 -0.013 0.013 0.9999 -6.458 17.9412)" class="st1" width="14.96" height="0.5"/>
	<polygon class="st1" points="1367.96,529.92 1367.78,529.47 1381.9,523.67 1382.09,524.12 	"/>
	<polygon class="st1" points="1405.9,532.22 1397.33,518.52 1397.62,518.41 1417.79,510.97 1433.66,498.57 1433.97,498.96 
		1418,511.42 1398.08,518.77 1406.32,531.96 	"/>
	<polygon class="st1" points="1404.93,543.73 1404.71,543.29 1424.48,533.6 1417.68,511.26 1418.15,511.11 1425.08,533.86 
		1424.89,533.96 	"/>
	<polygon class="st1" points="1387.43,486.44 1378.81,479.89 1379.11,479.5 1387.73,486.04 	"/>
	<polygon class="st1" points="1420.05,587.46 1419.68,587.13 1433.21,572.5 1448.19,560.11 1444.98,548.98 1423.2,533.94 
		1423.48,533.53 1445.41,548.67 1445.43,548.76 1448.75,560.28 1448.63,560.39 1433.55,572.86 	"/>
	<path class="st3" d="M1385.77,504.52c0.9,0,1.64,0.74,1.64,1.64c0,0.9-0.74,1.64-1.64,1.64c-0.9,0-1.63-0.73-1.63-1.64
		C1384.14,505.25,1384.87,504.52,1385.77,504.52L1385.77,504.52z"/>
	<path class="st3" d="M1404.3,495.15c1,0,1.81,0.81,1.81,1.81c0,1-0.81,1.81-1.81,1.81s-1.81-0.81-1.81-1.81
		C1402.49,495.96,1403.3,495.15,1404.3,495.15L1404.3,495.15z"/>
	<path class="st3" d="M1397.71,516.95c1,0,1.81,0.81,1.81,1.81c0,1-0.81,1.81-1.81,1.81s-1.81-0.81-1.81-1.81
		C1395.9,517.76,1396.71,516.95,1397.71,516.95L1397.71,516.95z"/>
	<polygon class="st1" points="1408.93,566.86 1408.6,566.49 1422.74,553.83 1424.54,533.64 1424.59,533.58 1438.36,516.22 
		1453.8,526.83 1475.77,522.58 1475.77,511.77 1476.27,511.77 1476.27,522.99 1453.69,527.35 1453.61,527.3 1438.46,516.9 
		1425.02,533.83 1423.21,554.07 1423.14,554.14 	"/>
	<polygon class="st1" points="1471.36,542.33 1453.2,527.02 1453.52,526.64 1471.68,541.95 	"/>
	<polygon class="st1" points="1443.53,549.55 1443.74,549.08 1453.52,526.99 1453.97,527.19 1444.4,548.82 1471.46,541.9 
		1491.81,534.4 1475.28,522.63 1475.99,522.54 1510.93,518.15 1513.27,494.51 1513.76,494.56 1511.39,518.59 1511.19,518.61 
		1476.75,522.95 1492.99,534.54 1471.59,542.38 	"/>
	<path class="st1" d="M1562.55,520.67l-0.17-0.07l-23.64-14.36l17-7.52l-11.08-18.89l0.43-0.25l11.01,18.77l13.11-14.53l10.77-4.35
		l0.18,0.46l-10.72,4.33l-12.98,14.42l17.7,7.59l-0.21,0.25L1562.55,520.67z M1539.64,506.08l22.76,13.99l10.97-13.61l-17.26-7.4
		L1539.64,506.08z"/>
	<polygon class="st1" points="1536.4,570.03 1527.56,560.17 1514.94,541.05 1515.21,540.92 1534.22,529.02 1538.95,506.08 
		1539.42,506.23 1534.62,529.37 1534.52,529.42 1515.7,541.23 1527.94,559.85 1536.77,569.7 	"/>
	<polygon class="st1" points="1573.51,544.02 1573.04,543.88 1577.64,528.73 1563.79,520.58 1564.04,520.15 1578.22,528.5 	"/>
	
		<rect x="1580.73" y="501.36" transform="matrix(0.3514 -0.9362 0.9362 0.3514 548.8264 1810.3259)" class="st1" width="0.5" height="15.41"/>
	<polygon class="st1" points="1470.68,561.73 1470.69,561.44 1471.28,541.62 1471.68,541.95 1490.32,557.82 1489.99,558.2 
		1471.75,542.67 1471.19,561.17 1490.59,558.69 1515.19,540.93 1515.45,541.36 1490.71,559.17 	"/>
	<polygon class="st1" points="1509.62,568.39 1490.4,559.07 1490.43,558.88 1492.22,534.11 1515,540.72 1510.88,518.17 
		1511.11,518.12 1538.84,505.98 1529.89,484.53 1530.35,484.34 1539.54,506.33 1539.24,506.4 1511.44,518.56 1515.64,541.57 
		1492.59,534.83 1490.95,558.79 1509.63,567.85 1527.64,559.78 1527.84,560.23 	"/>
	<polygon class="st1" points="1503.67,590.59 1503.51,590.12 1521.2,584.08 1509.55,568.42 1488.73,577.46 1471.53,578.48 
		1471.5,577.99 1488.65,576.96 1509.71,567.81 1509.83,567.97 1522.01,584.33 	"/>
	<polygon class="st1" points="1522.36,584.45 1522.31,583.96 1533.12,582.98 1533.17,583.48 	"/>
	<path class="st1" d="M1424.93,601.77l-0.13-0.48l14.97-4.03l14.9-13.51l-21.46-10.89l-0.04-0.07l-10.42-18.72l0.43-0.24
		l10.38,18.65l21.14,10.73l-6.57-23.28l23.04,1.29l0.59,17.2l-0.18,0.06l-16.19,5.38l0.09,0.32l-0.35-0.18l-15.19,13.74
		L1424.93,601.77z M1448.8,560.46l6.47,22.91l15.99-5.32l-0.57-16.37L1448.8,560.46z"/>
	<polygon class="st1" points="1527.69,607.96 1512.73,604.81 1502.63,590.4 1502.67,590.29 1509.39,568.05 1509.86,568.19 
		1503.18,590.31 1513.03,604.37 1527.79,607.48 	"/>
	<polygon class="st1" points="1516.67,620.21 1494.89,614.72 1494.97,614.46 1503.23,590.63 1485.51,591.71 1478.88,611.95 
		1478.61,611.73 1463.37,599.68 1463.68,599.29 1478.64,611.12 1485.14,591.23 1485.31,591.22 1503.94,590.09 1503.82,590.44 
		1495.53,614.37 1516,619.53 1512.62,604.57 1512.65,604.49 1521.38,584.11 1521.83,584.3 1513.14,604.62 	"/>
	<polygon class="st1" points="1463.41,599.54 1454.89,583.81 1455.32,583.57 1463.64,598.92 1485.12,591.28 1488.47,577.15 
		1488.95,577.27 1485.54,591.66 	"/>
	<polygon class="st1" points="1447.84,613.89 1447.74,613.89 1425.13,613.03 1425.15,612.54 1447.66,613.39 1463.35,599.05 
		1463.69,599.41 	"/>
	<polygon class="st1" points="1490.94,632.37 1490.46,632.25 1494.9,614.74 1478.8,611.79 1463.12,620.61 1463.01,620.57 
		1447.57,613.83 1447.53,613.75 1439.67,597.59 1440.12,597.38 1447.93,613.45 1463.1,620.06 1478.72,611.27 1495.51,614.35 
		1495.45,614.61 	"/>
	<polygon class="st1" points="1516.58,631.33 1516.09,631.33 1516.09,619.65 1527.19,618.12 1527.25,618.61 1516.58,620.09 	"/>
	
		<rect x="1470.24" y="617.1" transform="matrix(0.6776 -0.7355 0.7355 0.6776 12.9134 1283.7198)" class="st1" width="0.5" height="20.06"/>
	
		<rect x="1450.91" y="626.78" transform="matrix(0.4884 -0.8726 0.8726 0.4884 199.3205 1594.0242)" class="st1" width="16.4" height="0.5"/>
	<polygon class="st1" points="1444.21,627.09 1443.73,626.96 1447.51,613.57 1447.99,613.71 	"/>
	<polygon class="st1" points="1577.99,528.85 1577.86,528.37 1587.6,525.77 1587.73,526.25 	"/>
	<polygon class="st1" points="1550.27,536.53 1549.88,536.23 1562.28,520.21 1562.67,520.52 	"/>
	<polygon class="st1" points="1547.39,540.26 1534.33,529.42 1534.51,528.96 1547.57,539.8 	"/>
	<g>
		<path class="st2" d="M1556.93,753.17l-1.13-15.81l11-19.78l-0.1-1.66h24.69l-0.37,3.36l0.06,29.05c0,1.04-0.73,1.91-1.75,2.11
			c-1.98,0.39-5.21,0.73-7.5-0.48c0,0-4.55,3.58-7.62-0.11c0,0-5.5,4.02-8.37-1.12l-1.76-0.11
			C1564.1,748.63,1564.98,755.73,1556.93,753.17L1556.93,753.17L1556.93,753.17z"/>
		<path class="st3" d="M1387.58,485.02c1,0,1.8,0.81,1.8,1.81c0,1-0.81,1.81-1.8,1.81c-1,0-1.81-0.81-1.81-1.81
			C1385.78,485.83,1386.58,485.02,1387.58,485.02L1387.58,485.02z"/>
		<path class="st3" d="M1382.32,522.45c0.8,0,1.45,0.65,1.45,1.45c0,0.8-0.65,1.45-1.45,1.45c-0.8,0-1.44-0.65-1.44-1.45
			C1380.88,523.1,1381.53,522.45,1382.32,522.45L1382.32,522.45z"/>
		<path class="st3" d="M1438.41,514.75c1,0,1.81,0.81,1.81,1.81c0,1-0.81,1.81-1.81,1.81c-1,0-1.81-0.81-1.81-1.81
			C1436.61,515.56,1437.42,514.75,1438.41,514.75L1438.41,514.75z"/>
		<path class="st3" d="M1417.91,508.84c1,0,1.81,0.81,1.81,1.81c0,1-0.81,1.81-1.81,1.81c-1,0-1.81-0.81-1.81-1.81
			C1416.1,509.65,1416.92,508.84,1417.91,508.84L1417.91,508.84z"/>
		<path class="st3" d="M1425.14,531.93c0.99,0,1.81,0.81,1.81,1.81c0,1-0.82,1.81-1.81,1.81c-1,0-1.81-0.81-1.81-1.81
			C1423.34,532.74,1424.14,531.93,1425.14,531.93L1425.14,531.93z"/>
		<path class="st3" d="M1569.29,482.85c-0.92,0-1.67,0.75-1.67,1.68c0,0.93,0.75,1.68,1.67,1.68c0.93,0,1.68-0.75,1.68-1.68
			C1570.97,483.6,1570.22,482.85,1569.29,482.85L1569.29,482.85z"/>
		<path class="st3" d="M1573.76,504.91c-0.8,0-1.45,0.65-1.45,1.44c0,0.8,0.65,1.45,1.45,1.45c0.8,0,1.45-0.65,1.45-1.45
			C1575.21,505.55,1574.56,504.91,1573.76,504.91L1573.76,504.91z"/>
		<path class="st3" d="M1556.05,496.95c-1,0-1.81,0.81-1.81,1.81c0,1,0.81,1.81,1.81,1.81c0.99,0,1.8-0.81,1.8-1.81
			C1557.85,497.76,1557.04,496.95,1556.05,496.95L1556.05,496.95z"/>
		<path class="st3" d="M1563.07,518.64c-0.8,0-1.44,0.65-1.44,1.45s0.64,1.45,1.44,1.45c0.8,0,1.45-0.65,1.45-1.45
			S1563.87,518.64,1563.07,518.64L1563.07,518.64z"/>
		<path class="st3" d="M1577.67,527c-0.89,0-1.62,0.72-1.62,1.62c0,0.89,0.73,1.61,1.62,1.61c0.89,0,1.62-0.72,1.62-1.61
			C1579.29,527.72,1578.57,527,1577.67,527L1577.67,527z"/>
		<path class="st3" d="M1511.16,516.56c-1,0-1.81,0.81-1.81,1.81c0,1,0.81,1.81,1.81,1.81c1,0,1.81-0.81,1.81-1.81
			C1512.97,517.37,1512.16,516.56,1511.16,516.56L1511.16,516.56z"/>
		<path class="st3" d="M1539.01,503.92c-1.06,0-1.91,0.86-1.91,1.91c0,1.05,0.85,1.91,1.91,1.91c1.05,0,1.9-0.86,1.9-1.91
			C1540.91,504.77,1540.06,503.92,1539.01,503.92L1539.01,503.92z"/>
		<path class="st3" d="M1534.42,526.95c-1.06,0-1.91,0.86-1.91,1.91c0,1.05,0.85,1.91,1.91,1.91c1.05,0,1.9-0.86,1.9-1.91
			C1536.33,527.8,1535.47,526.95,1534.42,526.95L1534.42,526.95z"/>
		<path class="st3" d="M1471.52,540.73c-0.78,0-1.41,0.63-1.41,1.41c0,0.78,0.63,1.41,1.41,1.41c0.78,0,1.41-0.63,1.41-1.41
			C1472.93,541.36,1472.3,540.73,1471.52,540.73L1471.52,540.73z"/>
		<path class="st3" d="M1453.75,525.28c-1.01,0-1.81,0.81-1.81,1.81c0,1,0.81,1.81,1.81,1.81c1,0,1.8-0.81,1.8-1.81
			C1455.55,526.09,1454.75,525.28,1453.75,525.28L1453.75,525.28z"/>
		<path class="st3" d="M1444.58,546.99c-0.85,0-1.55,0.69-1.55,1.55c0,0.86,0.69,1.55,1.55,1.55c0.86,0,1.56-0.69,1.56-1.55
			C1446.14,547.69,1445.44,546.99,1444.58,546.99L1444.58,546.99z"/>
		<path class="st3" d="M1470.94,560.01c-0.81,0-1.45,0.65-1.45,1.44c0,0.8,0.64,1.45,1.45,1.45c0.8,0,1.44-0.65,1.44-1.45
			C1472.38,560.65,1471.74,560.01,1470.94,560.01L1470.94,560.01z"/>
		<path class="st3" d="M1521.6,585.41c-0.91,0-1.65-0.74-1.65-1.65c0-0.91,0.74-1.65,1.65-1.65c0.92,0,1.66,0.74,1.66,1.65
			C1523.26,584.67,1522.52,585.41,1521.6,585.41L1521.6,585.41z"/>
		<path class="st3" d="M1502.91,592.17c-1,0-1.81-0.81-1.81-1.81c0-1,0.81-1.81,1.81-1.81c1,0,1.81,0.81,1.81,1.81
			C1504.71,591.36,1503.9,592.17,1502.91,592.17L1502.91,592.17z"/>
		<path class="st3" d="M1509.63,569.56c-0.8,0-1.45-0.65-1.45-1.45c0-0.8,0.65-1.44,1.45-1.44c0.8,0,1.44,0.65,1.44,1.44
			C1511.07,568.92,1510.43,569.56,1509.63,569.56L1509.63,569.56z"/>
		<path class="st3" d="M1488.58,579.02c-1,0-1.81-0.81-1.81-1.81c0-1,0.81-1.81,1.81-1.81c1,0,1.81,0.81,1.81,1.81
			C1490.39,578.21,1489.58,579.02,1488.58,579.02L1488.58,579.02z"/>
		<path class="st3" d="M1476.01,520.98c-1,0-1.8,0.81-1.8,1.81c0,1,0.81,1.81,1.8,1.81c1,0,1.81-0.81,1.81-1.81
			C1477.82,521.79,1477.02,520.98,1476.01,520.98L1476.01,520.98z"/>
		<path class="st3" d="M1492.4,532.45c1.12,0,2.02,0.9,2.02,2.02c0,1.12-0.9,2.02-2.02,2.02c-1.12,0-2.02-0.91-2.02-2.02
			C1490.38,533.35,1491.28,532.45,1492.4,532.45L1492.4,532.45z"/>
		<path class="st3" d="M1515.32,539.34c1,0,1.81,0.81,1.81,1.81c0,1-0.81,1.81-1.81,1.81c-1.01,0-1.81-0.81-1.81-1.81
			C1513.51,540.14,1514.31,539.34,1515.32,539.34L1515.32,539.34z"/>
		<path class="st3" d="M1490.7,556.56c1.12,0,2.02,0.9,2.02,2.02c0,1.11-0.9,2.02-2.02,2.02c-1.11,0-2.02-0.9-2.02-2.02
			C1488.68,557.47,1489.59,556.56,1490.7,556.56L1490.7,556.56z"/>
		<path class="st3" d="M1527.74,558.2c1,0,1.81,0.81,1.81,1.81c0,1-0.81,1.81-1.81,1.81c-1,0-1.81-0.81-1.81-1.81
			C1525.93,559.01,1526.74,558.2,1527.74,558.2L1527.74,558.2z"/>
		<path class="st3" d="M1516.85,621.65c-1.07,0-1.93-0.86-1.93-1.93c0-1.07,0.87-1.93,1.93-1.93c1.06,0,1.93,0.86,1.93,1.93
			C1518.79,620.79,1517.92,621.65,1516.85,621.65L1516.85,621.65z"/>
		<path class="st3" d="M1495.21,616.35c-0.75,0-1.35-0.61-1.35-1.35c0-0.75,0.61-1.35,1.35-1.35c0.74,0,1.35,0.61,1.35,1.35
			C1496.56,615.74,1495.95,616.35,1495.21,616.35L1495.21,616.35z"/>
		<path class="st3" d="M1512.88,606.04c-0.8,0-1.44-0.65-1.44-1.45c0-0.8,0.64-1.45,1.44-1.45c0.8,0,1.45,0.65,1.45,1.45
			C1514.33,605.39,1513.68,606.04,1512.88,606.04L1512.88,606.04z"/>
		<path class="st3" d="M1485.33,592.91c-0.8,0-1.44-0.65-1.44-1.45c0-0.8,0.65-1.44,1.44-1.44c0.8,0,1.44,0.65,1.44,1.44
			C1486.77,592.27,1486.13,592.91,1485.33,592.91L1485.33,592.91z"/>
		<path class="st3" d="M1433.82,574.33c0.91,0,1.65-0.74,1.65-1.65c0-0.91-0.74-1.65-1.65-1.65c-0.91,0-1.65,0.74-1.65,1.65
			C1432.16,573.58,1432.9,574.33,1433.82,574.33L1433.82,574.33z"/>
		<path class="st3" d="M1454.68,585.14c0.8,0,1.46-0.65,1.46-1.46c0-0.81-0.66-1.46-1.46-1.46c-0.81,0-1.46,0.65-1.46,1.46
			C1453.23,584.48,1453.87,585.14,1454.68,585.14L1454.68,585.14z"/>
		<path class="st3" d="M1448.47,561.64c0.8,0,1.44-0.65,1.44-1.45c0-0.8-0.65-1.45-1.44-1.45c-0.81,0-1.45,0.65-1.45,1.45
			C1447.02,560.99,1447.67,561.64,1448.47,561.64L1448.47,561.64z"/>
		<path class="st3" d="M1471.51,580.04c1.01,0,1.81-0.81,1.81-1.81c0-1-0.81-1.81-1.81-1.81c-0.99,0-1.81,0.81-1.81,1.81
			C1469.71,579.23,1470.52,580.04,1471.51,580.04L1471.51,580.04z"/>
		<path class="st3" d="M1447.75,615.09c0.8,0,1.45-0.65,1.45-1.45c0-0.8-0.65-1.44-1.45-1.44s-1.45,0.65-1.45,1.44
			C1446.3,614.44,1446.96,615.09,1447.75,615.09L1447.75,615.09z"/>
		<path class="st3" d="M1463.11,621.37c0.83,0,1.5-0.67,1.5-1.5c0-0.83-0.67-1.5-1.5-1.5c-0.83,0-1.5,0.67-1.5,1.5
			C1461.61,620.7,1462.28,621.37,1463.11,621.37L1463.11,621.37z"/>
		<path class="st3" d="M1440.42,598.93c0.8,0,1.45-0.65,1.45-1.44c0-0.8-0.65-1.45-1.45-1.45s-1.45,0.65-1.45,1.45
			C1438.97,598.29,1439.62,598.93,1440.42,598.93L1440.42,598.93z"/>
		<path class="st3" d="M1478.77,612.82c0.71,0,1.28-0.58,1.28-1.29c0-0.71-0.57-1.29-1.28-1.29c-0.71,0-1.29,0.58-1.29,1.29
			C1477.47,612.25,1478.05,612.82,1478.77,612.82L1478.77,612.82z"/>
		<path class="st3" d="M1463.52,600.6c0.76,0,1.37-0.61,1.37-1.37c0-0.76-0.61-1.37-1.37-1.37s-1.37,0.61-1.37,1.37
			C1462.15,599.99,1462.77,600.6,1463.52,600.6L1463.52,600.6z"/>
		<path class="st3" d="M1423.34,551.88c-1,0-1.81,0.81-1.81,1.81c0,1,0.81,1.81,1.81,1.81c0.99,0,1.81-0.81,1.81-1.81
			C1425.14,552.69,1424.33,551.88,1423.34,551.88L1423.34,551.88z"/>
	</g>
	<path class="st1" d="M1500.3,364.46c-0.12,0.24-0.26,0.5-0.37,0.74c-0.92,1.85-1.78,3.61-2.84,5.17c-0.37,0.54-0.75,1.11-1.13,1.67
		c-1.65,2.51-3.36,5.1-5.63,6.4c-1.43,0.83-3.67,0.65-5.85,0.47c-0.78-0.06-1.55-0.13-2.3-0.14c-2.88-13.77-10.44-20.61-23.75-21.52
		c-7.28-0.48-14.62-0.19-21.72,0.06c-3.11,0.12-6.19,0.24-9.22,0.29l-0.56,0.01l-13.69,28.73c-0.51,1.08-0.33,2.36,0.51,3.29
		c0.58,0.64,1.45,0.96,2.32,0.94l3.92-0.07l0.19,2.4c0.14,1.88,0.28,3.66,0.44,5.44l0.15,1.51c0.47,5.1,0.95,10.38,3.34,15.29
		c0.68,1.38,2.17,2.26,3.76,2.24c0.07,0,0.14-0.01,0.21-0.01c7.68-0.52,15.06-1.74,22.88-3.04c2.18-0.36,2.89-0.55,5.13-0.9
		c0.04,2.2,0.06,4.41,0.09,6.62c0.08,5.71,0.66,13.76,0.86,19.57c0.22,6.52,2.47,12.56,7.93,16.39c4.04,2.84,9.49,2.35,14.43,2.27
		c1.19-0.02,3.68-0.13,4.88-0.35l0.64-0.11l0.1-0.65c1.05-6.91,1.11-14.02,1.17-20.89c0.1-11.11-1.1-22.61,3.27-33.34l0.29-0.71
		l-0.67-0.4c-5.25-3.17-6.58-5.38-6.02-10.67l5.35,0.71c1.84,0.11,5.41-0.22,7.77-3.91c0.01-0.01,0.01-0.02,0.02-0.03
		c0.13-0.2,0.26-0.4,0.39-0.6c2.77-4.29,5.9-9.15,8.54-14.24c1.07-2.07,1.41-4.92-0.01-7.74
		C1502.89,361.37,1500.41,364.32,1500.3,364.46z M1503.51,372.26c-2.6,5.01-5.7,9.83-8.45,14.09c-0.01,0.01-0.02,0.03-0.03,0.04
		c-1.64,2.55-4.6,3.92-7.6,3.52l-5.94-0.79l-0.13,0.9c-0.85,6.42,0.53,9.43,6.12,12.96c-4.21,10.84-3.02,22.25-3.12,33.29
		c-0.06,6.59-0.11,13.39-1.05,19.98c-5.47,0.8-13.02,1.74-17.2-1.65c-4.47-3.62-7.05-8.97-7.25-15.04
		c-0.2-5.79-0.78-13.84-0.86-19.54c-0.04-2.56-0.07-5.12-0.11-7.67l-0.02-1.04l-1.03,0.16c-2.6,0.41-3.66,0.65-6.18,1.07
		c-7.77,1.28-15.11,2.5-22.7,3.01c-0.9-0.05-1.83-0.42-2.21-1.2c-2.24-4.62-2.71-9.72-3.16-14.66l-0.14-1.52
		c-0.17-1.77-0.3-3.54-0.45-5.41l-0.32-4.11l-5.69,0.1c-0.35,0.01-0.7-0.13-0.93-0.41c-0.3-0.37-0.36-0.82-0.16-1.23l13.19-27.71
		c2.87-0.06,5.77-0.17,8.7-0.29c7.05-0.26,14.35-0.55,21.52-0.06c12.77,0.87,19.62,7.28,22.24,20.77l0.15,0.75l0.76-0.01
		c0.91-0.02,1.89,0.07,2.88,0.15c2.42,0.18,4.95,0.4,6.9-0.71c2.64-1.52,4.46-4.29,6.24-6.97c0.37-0.56,0.73-1.11,1.1-1.65
		c1.14-1.66,2.03-3.47,2.97-5.4c0.04-0.07,0.07-0.15,0.11-0.22c0.32-0.64,1.23-0.69,1.59-0.07
		C1504.66,368.1,1504.4,370.54,1503.51,372.26z"/>
	<g>
		<path class="st4" d="M1534.89,706.49h-0.03l-1.55,0.85l-0.23-0.93l1.94-1.06h1.03v9.03h-1.16V706.49z"/>
		<path class="st4" d="M1516.01,681.18h-0.03l-1.87,1.03l-0.28-1.13l2.35-1.28h1.24v10.92h-1.41V681.18z"/>
		<path class="st4" d="M1516.82,708.67c0,3.62-1.32,5.62-3.64,5.62c-2.05,0-3.43-1.95-3.47-5.47c0-3.57,1.52-5.54,3.64-5.54
			C1515.56,703.28,1516.82,705.28,1516.82,708.67z M1511.13,708.84c0,2.77,0.84,4.34,2.13,4.34c1.45,0,2.15-1.72,2.15-4.44
			c0-2.62-0.66-4.34-2.13-4.34C1512.03,704.4,1511.13,705.94,1511.13,708.84z"/>
		<path class="st4" d="M1512.71,727.51h-0.04l-2.2,1.21l-0.33-1.32l2.76-1.5h1.46v12.85h-1.65V727.51z"/>
		<path class="st4" d="M1512.56,776.14h-0.03l-1.48,0.81l-0.22-0.89l1.86-1.01h0.98v8.65h-1.11V776.14z"/>
		<path class="st4" d="M1515.62,802.83c0,2.4-0.88,3.72-2.41,3.72c-1.36,0-2.28-1.29-2.3-3.63c0-2.37,1-3.67,2.42-3.67
			C1514.79,799.26,1515.62,800.58,1515.62,802.83z M1511.85,802.94c0,1.83,0.56,2.88,1.41,2.88c0.96,0,1.42-1.14,1.42-2.94
			c0-1.74-0.44-2.88-1.41-2.88C1512.45,800,1511.85,801.02,1511.85,802.94z"/>
		<path class="st4" d="M1514.9,844.28c0,3.11-1.13,4.82-3.12,4.82c-1.76,0-2.95-1.67-2.97-4.69c0-3.06,1.3-4.75,3.13-4.75
			C1513.82,839.66,1514.9,841.38,1514.9,844.28z M1510.02,844.42c0,2.37,0.72,3.72,1.83,3.72c1.25,0,1.84-1.48,1.84-3.81
			c0-2.25-0.57-3.72-1.83-3.72C1510.79,840.62,1510.02,841.94,1510.02,844.42z"/>
		<path class="st4" d="M1487.85,661.65c0,2.42-0.88,3.76-2.44,3.76c-1.37,0-2.3-1.3-2.32-3.66c0-2.39,1.01-3.71,2.44-3.71
			C1487.01,658.05,1487.85,659.38,1487.85,661.65z M1484.04,661.76c0,1.85,0.56,2.9,1.42,2.9c0.97,0,1.44-1.15,1.44-2.97
			c0-1.75-0.44-2.91-1.42-2.91C1484.65,658.79,1484.04,659.82,1484.04,661.76z"/>
		<path class="st4" d="M1487.65,685.19c0,2.22-0.81,3.45-2.23,3.45c-1.26,0-2.11-1.2-2.13-3.36c0-2.19,0.93-3.4,2.24-3.4
			C1486.88,681.88,1487.65,683.11,1487.65,685.19z M1484.16,685.29c0,1.7,0.51,2.66,1.31,2.66c0.89,0,1.32-1.05,1.32-2.72
			c0-1.61-0.41-2.66-1.31-2.66C1484.72,682.57,1484.16,683.51,1484.16,685.29z"/>
		<path class="st4" d="M1484.73,705.9h-0.02l-1.32,0.72l-0.2-0.8l1.66-0.9h0.88v7.71h-0.99V705.9z"/>
		<path class="st4" d="M1486,723.01h-0.02l-1.32,0.72l-0.2-0.8l1.66-0.9h0.88v7.71H1486V723.01z"/>
		<path class="st4" d="M1494.56,758.26c0,2.83-1.03,4.39-2.85,4.39c-1.6,0-2.68-1.52-2.71-4.28c0-2.79,1.18-4.33,2.85-4.33
			C1493.57,754.05,1494.56,755.61,1494.56,758.26z M1490.11,758.39c0,2.16,0.66,3.39,1.66,3.39c1.13,0,1.68-1.34,1.68-3.47
			c0-2.05-0.52-3.39-1.66-3.39C1490.82,754.92,1490.11,756.12,1490.11,758.39z"/>
		<path class="st4" d="M1484.76,799.71h-0.03l-1.46,0.8l-0.22-0.88l1.84-1h0.97v8.54h-1.1V799.71z"/>
		<path class="st4" d="M1487.67,826.37c0,2.23-0.82,3.47-2.25,3.47c-1.26,0-2.12-1.2-2.14-3.38c0-2.2,0.94-3.42,2.25-3.42
			C1486.89,823.04,1487.67,824.27,1487.67,826.37z M1484.16,826.47c0,1.71,0.52,2.68,1.31,2.68c0.9,0,1.32-1.06,1.32-2.74
			c0-1.62-0.41-2.68-1.31-2.68C1484.71,823.73,1484.16,824.68,1484.16,826.47z"/>
		<path class="st4" d="M1464.48,661.64c0,2.92-1.07,4.53-2.94,4.53c-1.65,0-2.77-1.57-2.8-4.42c0-2.88,1.22-4.47,2.94-4.47
			C1463.47,657.29,1464.48,658.9,1464.48,661.64z M1459.89,661.77c0,2.23,0.68,3.5,1.72,3.5c1.17,0,1.73-1.39,1.73-3.58
			c0-2.12-0.53-3.5-1.72-3.5C1460.61,658.19,1459.89,659.43,1459.89,661.77z"/>
		<path class="st4" d="M1460.08,685.18c0,2.45-0.89,3.8-2.46,3.8c-1.38,0-2.32-1.32-2.34-3.7c0-2.41,1.02-3.74,2.46-3.74
			C1459.23,681.54,1460.08,682.89,1460.08,685.18z M1456.24,685.29c0,1.87,0.57,2.93,1.44,2.93c0.98,0,1.45-1.16,1.45-3
			c0-1.77-0.45-2.93-1.44-2.93C1456.85,682.29,1456.24,683.33,1456.24,685.29z"/>
		<path class="st4" d="M1461.07,732.21c0,3.45-1.26,5.35-3.47,5.35c-1.95,0-3.27-1.86-3.3-5.21c0-3.4,1.44-5.27,3.47-5.27
			C1459.87,727.08,1461.07,728.98,1461.07,732.21z M1455.65,732.36c0,2.63,0.8,4.13,2.03,4.13c1.38,0,2.04-1.64,2.04-4.22
			c0-2.49-0.63-4.13-2.03-4.13C1456.51,728.14,1455.65,729.61,1455.65,732.36z"/>
		<path class="st4" d="M1456.98,752.56h-0.03l-1.5,0.83l-0.23-0.91l1.89-1.03h1v8.79h-1.13V752.56z"/>
		<path class="st4" d="M1461.72,779.25c0,4.11-1.5,6.38-4.14,6.38c-2.32,0-3.9-2.21-3.94-6.21c0-4.06,1.72-6.29,4.14-6.29
			C1460.29,773.13,1461.72,775.4,1461.72,779.25z M1455.26,779.43c0,3.14,0.95,4.93,2.42,4.93c1.65,0,2.44-1.95,2.44-5.04
			c0-2.98-0.75-4.93-2.42-4.93C1456.28,774.39,1455.26,776.14,1455.26,779.43z"/>
		<path class="st4" d="M1460.1,826.36c0,2.47-0.9,3.83-2.48,3.83c-1.4,0-2.34-1.33-2.36-3.73c0-2.43,1.03-3.77,2.48-3.77
			C1459.25,822.69,1460.1,824.05,1460.1,826.36z M1456.23,826.47c0,1.89,0.57,2.96,1.45,2.96c0.99,0,1.46-1.17,1.46-3.03
			c0-1.79-0.45-2.96-1.45-2.96C1456.84,823.44,1456.23,824.49,1456.23,826.47z"/>
		<path class="st4" d="M1461.29,844.26c0,3.67-1.34,5.7-3.7,5.7c-2.08,0-3.48-1.98-3.52-5.55c0-3.62,1.54-5.62,3.7-5.62
			C1460.01,838.8,1461.29,840.82,1461.29,844.26z M1455.51,844.43c0,2.81,0.85,4.4,2.16,4.4c1.47,0,2.18-1.75,2.18-4.5
			c0-2.66-0.67-4.41-2.16-4.41C1456.43,839.93,1455.51,841.49,1455.51,844.43z"/>
		<path class="st4" d="M1434.04,685.12c0,4.23-1.54,6.56-4.25,6.56c-2.39,0-4.01-2.28-4.05-6.39c0-4.17,1.77-6.46,4.26-6.46
			C1432.57,678.83,1434.04,681.17,1434.04,685.12z M1427.39,685.32c0,3.23,0.98,5.07,2.48,5.07c1.7,0,2.5-2.01,2.5-5.18
			c0-3.06-0.77-5.07-2.48-5.07C1428.45,680.13,1427.39,681.93,1427.39,685.32z"/>
		<path class="st4" d="M1429.12,706.22h-0.02l-1.18,0.65l-0.18-0.71l1.48-0.8h0.78v6.88h-0.89V706.22z"/>
		<path class="st4" d="M1429.11,776.81h-0.02l-1.18,0.65l-0.18-0.71l1.48-0.8h0.78v6.88h-0.89V776.81z"/>
		<path class="st4" d="M1429.26,798.78h-0.03l-1.89,1.04l-0.28-1.14l2.38-1.29h1.26v11.04h-1.42V798.78z"/>
		<path class="st4" d="M1433.15,817.8h-0.03l-1.44,0.79l-0.22-0.87l1.81-0.98h0.96v8.41h-1.08V817.8z"/>
		<path class="st4" d="M1436.85,835.57c0,2.67-0.98,4.15-2.69,4.15c-1.51,0-2.53-1.44-2.56-4.04c0-2.63,1.12-4.09,2.69-4.09
			C1435.93,831.59,1436.85,833.06,1436.85,835.57z M1432.65,835.69c0,2.04,0.62,3.2,1.57,3.2c1.07,0,1.58-1.27,1.58-3.28
			c0-1.93-0.49-3.2-1.57-3.2C1433.32,832.41,1432.65,833.55,1432.65,835.69z"/>
		<path class="st1" d="M1532.6,675.6c0,2.68-0.98,4.17-2.7,4.17c-1.52,0-2.55-1.45-2.57-4.06c0-2.65,1.12-4.1,2.7-4.1
			C1531.67,671.6,1532.6,673.08,1532.6,675.6z M1528.38,675.72c0,2.05,0.62,3.22,1.58,3.22c1.08,0,1.59-1.28,1.59-3.29
			c0-1.94-0.49-3.22-1.58-3.22C1529.05,672.43,1528.38,673.57,1528.38,675.72z"/>
		<path class="st1" d="M1536.01,694.13c0,3.08-1.12,4.77-3.1,4.77c-1.74,0-2.92-1.66-2.95-4.65c0-3.03,1.29-4.71,3.1-4.71
			C1534.94,689.55,1536.01,691.25,1536.01,694.13z M1531.17,694.27c0,2.35,0.71,3.69,1.81,3.69c1.23,0,1.82-1.46,1.82-3.77
			c0-2.23-0.56-3.69-1.81-3.69C1531.94,690.49,1531.17,691.8,1531.17,694.27z"/>
		<path class="st1" d="M1509.74,667.64h-0.03l-1.48,0.81l-0.22-0.89l1.86-1.01h0.98v8.65h-1.11V667.64z"/>
		<path class="st1" d="M1507.55,694.15c0,2.4-0.88,3.72-2.41,3.72c-1.36,0-2.28-1.29-2.3-3.63c0-2.37,1.01-3.67,2.42-3.67
			C1506.71,690.58,1507.55,691.9,1507.55,694.15z M1503.77,694.26c0,1.83,0.56,2.88,1.41,2.88c0.96,0,1.42-1.14,1.42-2.94
			c0-1.74-0.44-2.88-1.41-2.88C1504.37,691.32,1503.77,692.34,1503.77,694.26z"/>
		<path class="st1" d="M1508.24,741.19c0,3.11-1.13,4.82-3.12,4.82c-1.76,0-2.95-1.67-2.97-4.69c0-3.06,1.3-4.75,3.13-4.75
			C1507.16,736.56,1508.24,738.28,1508.24,741.19z M1503.36,741.33c0,2.37,0.72,3.72,1.83,3.72c1.25,0,1.84-1.48,1.84-3.81
			c0-2.25-0.57-3.72-1.83-3.72C1504.13,737.52,1503.36,738.84,1503.36,741.33z"/>
		<path class="st1" d="M1504.54,760.98h-0.03l-1.75,0.96l-0.26-1.06l2.2-1.2h1.17v10.25h-1.32V760.98z"/>
		<path class="st1" d="M1509.17,788.22c0,4.05-1.48,6.29-4.08,6.29c-2.29,0-3.85-2.18-3.88-6.13c0-4,1.7-6.2,4.08-6.2
			C1507.76,782.18,1509.17,784.42,1509.17,788.22z M1502.8,788.4c0,3.1,0.94,4.86,2.38,4.86c1.63,0,2.4-1.93,2.4-4.97
			c0-2.93-0.74-4.86-2.38-4.86C1503.81,783.43,1502.8,785.15,1502.8,788.4z"/>
		<path class="st1" d="M1504.48,808.62h-0.03l-1.49,0.82l-0.22-0.9l1.87-1.02h0.99v8.7h-1.12V808.62z"/>
		<path class="st1" d="M1508.86,831.32c0,3.73-1.36,5.79-3.76,5.79c-2.11,0-3.54-2.01-3.58-5.64c0-3.68,1.56-5.71,3.76-5.71
			C1507.56,825.76,1508.86,827.82,1508.86,831.32z M1502.99,831.49c0,2.86,0.87,4.48,2.19,4.48c1.5,0,2.21-1.77,2.21-4.58
			c0-2.7-0.68-4.48-2.19-4.48C1503.92,826.91,1502.99,828.5,1502.99,831.49z"/>
		<path class="st1" d="M1476.68,691.03h-0.03l-1.46,0.8l-0.22-0.88l1.84-1h0.97v8.54h-1.1V691.03z"/>
		<path class="st1" d="M1479.59,717.68c0,2.23-0.82,3.47-2.25,3.47c-1.26,0-2.12-1.2-2.14-3.38c0-2.2,0.94-3.42,2.25-3.42
			C1478.81,714.36,1479.59,715.59,1479.59,717.68z M1476.08,717.78c0,1.71,0.52,2.68,1.31,2.68c0.9,0,1.32-1.06,1.32-2.74
			c0-1.62-0.41-2.68-1.31-2.68C1476.64,715.05,1476.08,716,1476.08,717.78z"/>
		<path class="st1" d="M1499.23,712.57c0,2.23-0.82,3.47-2.25,3.47c-1.26,0-2.12-1.2-2.14-3.38c0-2.2,0.94-3.42,2.25-3.42
			C1498.45,709.25,1499.23,710.48,1499.23,712.57z M1495.72,712.68c0,1.71,0.52,2.68,1.31,2.68c0.9,0,1.32-1.06,1.32-2.74
			c0-1.62-0.41-2.68-1.31-2.68C1496.27,709.94,1495.72,710.89,1495.72,712.68z"/>
		<path class="st1" d="M1480.56,764.71c0,3.22-1.18,5-3.24,5c-1.82,0-3.06-1.73-3.08-4.87c0-3.18,1.35-4.93,3.24-4.93
			C1479.44,759.92,1480.56,761.69,1480.56,764.71z M1475.5,764.86c0,2.46,0.75,3.86,1.89,3.86c1.29,0,1.91-1.53,1.91-3.95
			c0-2.33-0.59-3.86-1.89-3.86C1476.3,760.91,1475.5,762.28,1475.5,764.86z"/>
		<path class="st1" d="M1479.45,788.28c0,2.09-0.76,3.24-2.1,3.24c-1.18,0-1.98-1.12-2-3.15c0-2.06,0.87-3.19,2.1-3.19
			C1478.72,785.17,1479.45,786.32,1479.45,788.28z M1476.17,788.37c0,1.6,0.48,2.5,1.23,2.5c0.84,0,1.24-0.99,1.24-2.56
			c0-1.51-0.38-2.5-1.23-2.5C1476.69,785.81,1476.17,786.7,1476.17,788.37z"/>
		<path class="st1" d="M1476.65,808.99h-0.02l-1.32,0.72l-0.2-0.79l1.66-0.9h0.88v7.7h-0.99V808.99z"/>
		<path class="st1" d="M1483.85,842.98h-0.02l-1.32,0.72l-0.2-0.79l1.66-0.9h0.88v7.7h-0.99V842.98z"/>
		<path class="st1" d="M1479.96,835.32c0,2.61-0.95,4.05-2.63,4.05c-1.48,0-2.48-1.4-2.5-3.94c0-2.57,1.09-3.99,2.63-3.99
			C1479.05,831.44,1479.96,832.88,1479.96,835.32z M1475.86,835.44c0,2,0.6,3.13,1.53,3.13c1.05,0,1.55-1.24,1.55-3.2
			c0-1.89-0.48-3.13-1.53-3.13C1476.51,832.24,1475.86,833.35,1475.86,835.44z"/>
		<path class="st1" d="M1453.64,670.56c0,4.11-1.5,6.38-4.14,6.38c-2.32,0-3.9-2.21-3.94-6.21c0-4.06,1.72-6.29,4.14-6.29
			C1452.21,664.44,1453.64,666.71,1453.64,670.56z M1447.18,670.75c0,3.14,0.95,4.93,2.42,4.93c1.65,0,2.44-1.95,2.44-5.04
			c0-2.98-0.75-4.93-2.42-4.93C1448.2,665.71,1447.18,667.46,1447.18,670.75z"/>
		<path class="st1" d="M1452.03,717.68c0,2.47-0.9,3.83-2.48,3.83c-1.4,0-2.34-1.33-2.36-3.73c0-2.43,1.03-3.77,2.48-3.77
			C1451.17,714,1452.03,715.37,1452.03,717.68z M1448.15,717.79c0,1.89,0.57,2.96,1.45,2.96c0.99,0,1.46-1.17,1.46-3.03
			c0-1.79-0.45-2.96-1.45-2.96C1448.76,714.76,1448.15,715.81,1448.15,717.79z"/>
		<path class="st1" d="M1453.21,741.17c0,3.67-1.34,5.7-3.7,5.7c-2.08,0-3.48-1.98-3.52-5.55c0-3.62,1.54-5.62,3.7-5.62
			C1451.94,735.7,1453.21,737.73,1453.21,741.17z M1447.44,741.33c0,2.81,0.85,4.4,2.16,4.4c1.47,0,2.18-1.75,2.18-4.5
			c0-2.66-0.67-4.41-2.16-4.41C1448.35,736.83,1447.44,738.39,1447.44,741.33z"/>
		<path class="st1" d="M1448.82,762.39h-0.02l-1.11,0.61l-0.17-0.67l1.39-0.76h0.73v6.47h-0.83V762.39z"/>
		<path class="st1" d="M1452.13,811.79c0,2.57-0.94,3.99-2.59,3.99c-1.45,0-2.44-1.38-2.46-3.89c0-2.54,1.08-3.93,2.59-3.93
			C1451.24,807.96,1452.13,809.38,1452.13,811.79z M1448.09,811.91c0,1.97,0.6,3.08,1.51,3.08c1.03,0,1.52-1.22,1.52-3.15
			c0-1.86-0.47-3.08-1.51-3.08C1448.73,808.75,1448.09,809.85,1448.09,811.91z"/>
		<path class="st1" d="M1452.69,835.3c0,3.14-1.15,4.88-3.16,4.88c-1.78,0-2.98-1.69-3.01-4.75c0-3.1,1.32-4.81,3.16-4.81
			C1451.6,830.62,1452.69,832.36,1452.69,835.3z M1447.75,835.44c0,2.4,0.73,3.77,1.85,3.77c1.26,0,1.86-1.49,1.86-3.85
			c0-2.28-0.57-3.77-1.85-3.77C1448.53,831.59,1447.75,832.93,1447.75,835.44z"/>
		<path class="st1" d="M1424.68,668.31h-0.02l-1.18,0.65l-0.18-0.71l1.48-0.8h0.78v6.88h-0.89V668.31z"/>
		<path class="st1" d="M1421.19,690.1h-0.03l-1.89,1.04l-0.28-1.14l2.38-1.29h1.26v11.04h-1.42V690.1z"/>
		<path class="st1" d="M1421.09,714.61h-0.03l-1.44,0.79l-0.22-0.87l1.81-0.98h0.96v8.41h-1.08V714.61z"/>
		<path class="st1" d="M1424.43,741.2c0,2.67-0.98,4.15-2.69,4.15c-1.51,0-2.53-1.44-2.56-4.04c0-2.63,1.12-4.09,2.69-4.09
			C1423.51,737.22,1424.43,738.7,1424.43,741.2z M1420.23,741.32c0,2.04,0.62,3.2,1.57,3.2c1.07,0,1.58-1.27,1.58-3.28
			c0-1.93-0.49-3.2-1.57-3.2C1420.9,738.04,1420.23,739.18,1420.23,741.32z"/>
		<path class="st1" d="M1424.34,788.26c0,2.58-0.94,4-2.59,4c-1.46,0-2.44-1.39-2.47-3.89c0-2.54,1.08-3.94,2.59-3.94
			C1423.45,784.43,1424.34,785.85,1424.34,788.26z M1420.29,788.38c0,1.97,0.6,3.09,1.51,3.09c1.03,0,1.53-1.22,1.53-3.16
			c0-1.86-0.47-3.09-1.51-3.09C1420.93,785.22,1420.29,786.32,1420.29,788.38z"/>
		<path class="st1" d="M1421.11,808.53h-0.03l-1.53,0.84l-0.23-0.92l1.92-1.04h1.02v8.93h-1.15V808.53z"/>
		<path class="st1" d="M1425.62,839.95h-0.03l-1.56,0.86l-0.24-0.94l1.96-1.07h1.04v9.13h-1.17V839.95z"/>
		<path class="st4" d="M1525.44,660.61c0,2.83-1.03,4.39-2.85,4.39c-1.6,0-2.68-1.52-2.71-4.28c0-2.79,1.18-4.33,2.85-4.33
			C1524.45,656.4,1525.44,657.96,1525.44,660.61z M1520.99,660.74c0,2.16,0.66,3.39,1.66,3.39c1.13,0,1.68-1.34,1.68-3.47
			c0-2.05-0.52-3.39-1.66-3.39C1521.7,657.27,1520.99,658.47,1520.99,660.74z"/>
		<path class="st4" d="M1521.94,704.57h-0.03l-1.46,0.8l-0.22-0.88l1.84-1h0.97v8.54h-1.1V704.57z"/>
		<path class="st4" d="M1524.85,731.22c0,2.23-0.82,3.47-2.25,3.47c-1.26,0-2.12-1.2-2.14-3.38c0-2.2,0.94-3.42,2.25-3.42
			C1524.08,727.89,1524.85,729.13,1524.85,731.22z M1521.34,731.32c0,1.71,0.52,2.68,1.31,2.68c0.9,0,1.32-1.06,1.32-2.74
			c0-1.62-0.41-2.68-1.31-2.68C1521.9,728.58,1521.34,729.53,1521.34,731.32z"/>
		<path class="st4" d="M1517.96,754.83c0,2.91-1.06,4.52-2.93,4.52c-1.65,0-2.76-1.57-2.79-4.4c0-2.87,1.22-4.45,2.93-4.45
			C1516.95,750.49,1517.96,752.1,1517.96,754.83z M1513.38,754.96c0,2.23,0.67,3.49,1.71,3.49c1.17,0,1.72-1.38,1.72-3.57
			c0-2.11-0.53-3.49-1.71-3.49C1514.11,751.39,1513.38,752.63,1513.38,754.96z"/>
		<path class="st4" d="M1494.16,657.41h-0.03l-1.5,0.83l-0.23-0.91l1.89-1.03h1v8.79h-1.13V657.41z"/>
		<path class="st4" d="M1501.07,681.41c0,4.11-1.5,6.38-4.14,6.38c-2.32,0-3.9-2.21-3.94-6.21c0-4.06,1.72-6.29,4.14-6.29
			C1499.64,675.29,1501.07,677.56,1501.07,681.41z M1494.61,681.6c0,3.14,0.95,4.93,2.42,4.93c1.65,0,2.44-1.95,2.44-5.04
			c0-2.98-0.75-4.93-2.42-4.93C1495.63,676.55,1494.61,678.3,1494.61,681.6z"/>
		<path class="st4" d="M1497.29,731.21c0,2.47-0.9,3.83-2.48,3.83c-1.4,0-2.34-1.33-2.36-3.73c0-2.43,1.03-3.77,2.48-3.77
			C1496.43,727.54,1497.29,728.9,1497.29,731.21z M1493.41,731.32c0,1.89,0.57,2.96,1.45,2.96c0.99,0,1.46-1.17,1.46-3.03
			c0-1.79-0.45-2.96-1.45-2.96C1494.03,728.3,1493.41,729.35,1493.41,731.32z"/>
		<path class="st4" d="M1494.08,775.93h-0.02l-1.11,0.61l-0.17-0.67l1.39-0.76h0.74v6.47h-0.83V775.93z"/>
		<path class="st4" d="M1497.39,825.33c0,2.57-0.94,3.99-2.59,3.99c-1.45,0-2.44-1.38-2.46-3.89c0-2.54,1.08-3.93,2.59-3.93
			C1496.5,821.5,1497.39,822.92,1497.39,825.33z M1493.35,825.44c0,1.97,0.6,3.08,1.51,3.08c1.03,0,1.52-1.22,1.52-3.15
			c0-1.86-0.47-3.08-1.51-3.08C1493.99,822.29,1493.35,823.38,1493.35,825.44z"/>
		<path class="st4" d="M1498.79,840.98c0,3.14-1.15,4.88-3.16,4.88c-1.78,0-2.98-1.69-3.01-4.75c0-3.1,1.32-4.81,3.16-4.81
			C1497.7,836.3,1498.79,838.03,1498.79,840.98z M1493.85,841.12c0,2.4,0.73,3.77,1.85,3.77c1.26,0,1.86-1.49,1.86-3.85
			c0-2.28-0.57-3.77-1.85-3.77C1494.64,837.27,1493.85,838.6,1493.85,841.12z"/>
		<path class="st4" d="M1472.45,656.03h-0.05l-2.61,1.43l-0.39-1.57l3.28-1.78h1.73v15.25h-1.96V656.03z"/>
		<path class="st4" d="M1466.3,681.66h-0.02l-1.18,0.65l-0.18-0.71l1.48-0.8h0.78v6.88h-0.89V681.66z"/>
		<path class="st4" d="M1466.45,703.63h-0.03l-1.89,1.04l-0.28-1.14l2.38-1.29h1.26v11.04h-1.42V703.63z"/>
		<path class="st4" d="M1469.7,754.73c0,2.67-0.98,4.15-2.69,4.15c-1.51,0-2.53-1.44-2.56-4.04c0-2.63,1.12-4.09,2.69-4.09
			C1468.77,750.76,1469.7,752.23,1469.7,754.73z M1465.5,754.85c0,2.04,0.62,3.2,1.57,3.2c1.07,0,1.58-1.27,1.58-3.28
			c0-1.93-0.49-3.2-1.57-3.2C1466.16,751.58,1465.5,752.72,1465.5,754.85z"/>
		<path class="st4" d="M1469.6,801.8c0,2.58-0.94,4-2.59,4c-1.46,0-2.44-1.39-2.47-3.89c0-2.54,1.08-3.94,2.59-3.94
			C1468.71,797.96,1469.6,799.38,1469.6,801.8z M1465.55,801.91c0,1.97,0.6,3.09,1.51,3.09c1.03,0,1.53-1.22,1.53-3.16
			c0-1.86-0.47-3.09-1.51-3.09C1466.2,798.75,1465.55,799.85,1465.55,801.91z"/>
		<path class="st4" d="M1466.37,822.07h-0.03l-1.53,0.84l-0.23-0.92l1.92-1.04h1.02v8.93h-1.15V822.07z"/>
		<path class="st4" d="M1438.56,704.58h-0.03l-1.45,0.8l-0.22-0.88l1.83-0.99h0.97v8.5h-1.09V704.58z"/>
		<path class="st4" d="M1438.67,727.02h-0.03l-1.95,1.07l-0.29-1.18l2.46-1.34h1.3V737h-1.47V727.02z"/>
		<path class="st4" d="M1441.61,754.74c0,2.37-0.87,3.68-2.39,3.68c-1.34,0-2.25-1.28-2.27-3.58c0-2.34,0.99-3.62,2.38-3.62
			C1440.78,751.22,1441.61,752.52,1441.61,754.74z M1437.88,754.85c0,1.81,0.55,2.84,1.39,2.84c0.95,0,1.4-1.13,1.4-2.91
			c0-1.72-0.43-2.84-1.39-2.84C1438.47,751.95,1437.88,752.95,1437.88,754.85z"/>
		<path class="st4" d="M1438.55,775.31h-0.02l-1.39,0.76l-0.21-0.84l1.75-0.95h0.92v8.13h-1.05V775.31z"/>
		<path class="st4" d="M1442.7,801.77c0,3.48-1.27,5.4-3.5,5.4c-1.97,0-3.3-1.87-3.33-5.26c0-3.43,1.46-5.32,3.5-5.32
			C1441.49,796.59,1442.7,798.51,1442.7,801.77z M1437.23,801.92c0,2.66,0.8,4.17,2.04,4.17c1.39,0,2.06-1.65,2.06-4.26
			c0-2.52-0.63-4.17-2.04-4.17C1438.1,797.66,1437.23,799.14,1437.23,801.92z"/>
		<path class="st4" d="M1438.54,845.98h-0.02l-1.36,0.74l-0.2-0.82l1.7-0.93h0.9v7.92h-1.02V845.98z"/>
	</g>
	<path class="st4" d="M1493.79,328.31c0,2.42-0.88,3.76-2.44,3.76c-1.37,0-2.3-1.3-2.32-3.66c0-2.39,1.01-3.71,2.44-3.71
		C1492.95,324.7,1493.79,326.04,1493.79,328.31z M1489.98,328.42c0,1.85,0.56,2.9,1.42,2.9c0.97,0,1.44-1.15,1.44-2.97
		c0-1.75-0.44-2.91-1.42-2.91C1490.59,325.44,1489.98,326.47,1489.98,328.42z"/>
	<path class="st4" d="M1501.77,351.91c0,2.22-0.81,3.45-2.23,3.45c-1.26,0-2.11-1.2-2.13-3.36c0-2.19,0.93-3.4,2.24-3.4
		C1500.99,348.6,1501.77,349.83,1501.77,351.91z M1498.28,352.01c0,1.7,0.51,2.66,1.31,2.66c0.89,0,1.32-1.05,1.32-2.72
		c0-1.61-0.41-2.66-1.31-2.66C1498.83,349.29,1498.28,350.23,1498.28,352.01z"/>
	<path class="st4" d="M1540.92,388.79h-0.02l-1.32,0.72l-0.2-0.79l1.66-0.9h0.88v7.7h-0.99V388.79z"/>
	<path class="st4" d="M1539.66,402.34h-0.02l-1.32,0.72l-0.2-0.79l1.66-0.9h0.88v7.7h-0.99V402.34z"/>
	<path class="st4" d="M1542.96,417.07c0,2.61-0.95,4.05-2.63,4.05c-1.48,0-2.48-1.4-2.5-3.94c0-2.57,1.09-3.99,2.63-3.99
		C1542.06,413.19,1542.96,414.63,1542.96,417.07z M1538.86,417.19c0,2,0.6,3.13,1.53,3.13c1.05,0,1.55-1.24,1.55-3.2
		c0-1.89-0.48-3.13-1.53-3.13C1539.51,413.99,1538.86,415.1,1538.86,417.19z"/>
	<path class="st4" d="M1555.11,443.68c0,2.61-0.95,4.05-2.63,4.05c-1.48,0-2.48-1.4-2.5-3.94c0-2.57,1.09-3.99,2.63-3.99
		C1554.2,439.79,1555.11,441.23,1555.11,443.68z M1551.01,443.79c0,2,0.6,3.13,1.53,3.13c1.05,0,1.55-1.24,1.55-3.2
		c0-1.89-0.48-3.13-1.53-3.13C1551.66,440.6,1551.01,441.71,1551.01,443.79z"/>
	<path class="st4" d="M1474.66,328.36c0,2.92-1.07,4.53-2.94,4.53c-1.65,0-2.77-1.57-2.8-4.42c0-2.88,1.22-4.47,2.94-4.47
		C1473.65,324.01,1474.66,325.62,1474.66,328.36z M1470.07,328.49c0,2.23,0.68,3.5,1.72,3.5c1.17,0,1.73-1.39,1.73-3.58
		c0-2.12-0.53-3.5-1.72-3.5C1470.8,324.91,1470.07,326.15,1470.07,328.49z"/>
	<path class="st4" d="M1480.06,345.38c0,2.45-0.89,3.8-2.46,3.8c-1.38,0-2.32-1.32-2.34-3.7c0-2.41,1.02-3.74,2.46-3.74
		C1479.21,341.74,1480.06,343.09,1480.06,345.38z M1476.22,345.49c0,1.87,0.57,2.93,1.44,2.93c0.98,0,1.45-1.16,1.45-3
		c0-1.77-0.45-2.93-1.44-2.93C1476.83,342.5,1476.22,343.54,1476.22,345.49z"/>
	<path class="st4" d="M1515.13,393.54c0,2.57-0.94,3.99-2.59,3.99c-1.45,0-2.44-1.38-2.46-3.89c0-2.54,1.08-3.93,2.59-3.93
		C1514.24,389.72,1515.13,391.13,1515.13,393.54z M1511.09,393.66c0,1.97,0.6,3.08,1.51,3.08c1.03,0,1.52-1.22,1.52-3.15
		c0-1.86-0.47-3.08-1.51-3.08C1511.73,390.51,1511.09,391.6,1511.09,393.66z"/>
	<path class="st4" d="M1542.43,355.47c0,2.57-0.94,3.99-2.59,3.99c-1.45,0-2.44-1.38-2.46-3.89c0-2.54,1.08-3.93,2.59-3.93
		C1541.54,351.65,1542.43,353.06,1542.43,355.47z M1538.39,355.59c0,1.97,0.6,3.08,1.51,3.08c1.03,0,1.52-1.22,1.52-3.15
		c0-1.86-0.47-3.08-1.51-3.08C1539.03,352.44,1538.39,353.53,1538.39,355.59z"/>
	<path class="st1" d="M1515.7,417.06c0,3.14-1.15,4.88-3.16,4.88c-1.78,0-2.98-1.69-3.01-4.75c0-3.1,1.32-4.81,3.16-4.81
		C1514.6,412.38,1515.7,414.11,1515.7,417.06z M1510.75,417.2c0,2.4,0.73,3.77,1.85,3.77c1.26,0,1.86-1.49,1.86-3.85
		c0-2.28-0.57-3.77-1.85-3.77C1511.54,413.34,1510.75,414.68,1510.75,417.2z"/>
	<path class="st4" d="M1502.79,425.67h-0.03l-1.94,1.06l-0.29-1.17l2.43-1.32h1.29v11.32h-1.46V425.67z"/>
	<path class="st1" d="M1518.59,334.18h-0.03l-1.48,0.81l-0.22-0.89l1.86-1.01h0.98v8.65h-1.11V334.18z"/>
	<path class="st1" d="M1501.21,337.13h-0.03l-1.48,0.81l-0.22-0.89l1.86-1.01h0.98v8.65h-1.11V337.13z"/>
	<path class="st1" d="M1469.23,338.51h-0.03l-1.48,0.81l-0.22-0.89l1.86-1.01h0.98v8.65h-1.11V338.51z"/>
	<path class="st1" d="M1521.66,360.87c0,2.4-0.88,3.72-2.41,3.72c-1.36,0-2.28-1.29-2.3-3.63c0-2.37,1-3.67,2.42-3.67
		C1520.83,357.3,1521.66,358.62,1521.66,360.87z M1517.89,360.98c0,1.83,0.56,2.88,1.41,2.88c0.96,0,1.42-1.14,1.42-2.94
		c0-1.74-0.44-2.88-1.41-2.88C1518.49,358.04,1517.89,359.06,1517.89,360.98z"/>
	<path class="st1" d="M1531.82,383.58c0,2.4-0.88,3.72-2.41,3.72c-1.36,0-2.28-1.29-2.3-3.63c0-2.37,1.01-3.67,2.42-3.67
		C1530.98,380.01,1531.82,381.33,1531.82,383.58z M1528.04,383.69c0,1.83,0.56,2.88,1.41,2.88c0.96,0,1.42-1.14,1.42-2.94
		c0-1.74-0.44-2.88-1.41-2.88C1528.64,380.74,1528.04,381.76,1528.04,383.69z"/>
	<path class="st1" d="M1553.36,378.06c0,2.4-0.88,3.72-2.41,3.72c-1.36,0-2.28-1.29-2.3-3.63c0-2.37,1.01-3.67,2.42-3.67
		C1552.53,374.48,1553.36,375.81,1553.36,378.06z M1549.59,378.16c0,1.83,0.56,2.88,1.41,2.88c0.96,0,1.42-1.14,1.42-2.94
		c0-1.74-0.44-2.88-1.41-2.88C1550.19,375.22,1549.59,376.24,1549.59,378.16z"/>
	<path class="st1" d="M1451.97,340.25c0,2.4-0.88,3.72-2.41,3.72c-1.36,0-2.28-1.29-2.3-3.63c0-2.37,1.01-3.67,2.42-3.67
		C1451.13,336.68,1451.97,338,1451.97,340.25z M1448.19,340.36c0,1.83,0.56,2.88,1.41,2.88c0.96,0,1.42-1.14,1.42-2.94
		c0-1.74-0.44-2.88-1.41-2.88C1448.79,337.42,1448.19,338.44,1448.19,340.36z"/>
	<path class="st1" d="M1562.56,426.04c0,2.49-0.91,3.86-2.5,3.86c-1.41,0-2.36-1.34-2.38-3.76c0-2.45,1.04-3.8,2.5-3.8
		C1561.7,422.34,1562.56,423.71,1562.56,426.04z M1558.65,426.16c0,1.9,0.58,2.98,1.46,2.98c1,0,1.47-1.18,1.47-3.05
		c0-1.8-0.45-2.98-1.46-2.98C1559.27,423.11,1558.65,424.16,1558.65,426.16z"/>
	<path class="st1" d="M1547.85,429.06c0,2.49-0.91,3.86-2.5,3.86c-1.41,0-2.36-1.34-2.38-3.76c0-2.45,1.04-3.8,2.5-3.8
		C1546.98,425.36,1547.85,426.73,1547.85,429.06z M1543.94,429.17c0,1.9,0.58,2.98,1.46,2.98c1,0,1.47-1.18,1.47-3.05
		c0-1.8-0.45-2.98-1.46-2.98C1544.56,426.12,1543.94,427.18,1543.94,429.17z"/>
	<path class="st1" d="M1515.96,438.22c0,2.49-0.91,3.86-2.5,3.86c-1.41,0-2.36-1.34-2.38-3.76c0-2.45,1.04-3.8,2.5-3.8
		C1515.09,434.52,1515.96,435.89,1515.96,438.22z M1512.05,438.34c0,1.9,0.58,2.98,1.46,2.98c1,0,1.47-1.18,1.47-3.05
		c0-1.8-0.45-2.98-1.46-2.98C1512.67,435.29,1512.05,436.34,1512.05,438.34z"/>
	<path class="st1" d="M1536.51,436.18c0,3.59-1.31,5.57-3.61,5.57c-2.03,0-3.4-1.93-3.44-5.42c0-3.54,1.5-5.49,3.61-5.49
		C1535.26,430.84,1536.51,432.82,1536.51,436.18z M1530.87,436.35c0,2.75,0.83,4.3,2.11,4.3c1.44,0,2.13-1.71,2.13-4.4
		c0-2.6-0.66-4.3-2.11-4.3C1531.76,431.94,1530.87,433.47,1530.87,436.35z"/>
	<path class="st1" d="M1562.17,405.31c0,3.59-1.31,5.57-3.61,5.57c-2.03,0-3.4-1.93-3.44-5.42c0-3.54,1.5-5.49,3.61-5.49
		C1560.93,399.97,1562.17,401.95,1562.17,405.31z M1556.53,405.47c0,2.75,0.83,4.3,2.11,4.3c1.44,0,2.13-1.71,2.13-4.4
		c0-2.6-0.66-4.3-2.11-4.3C1557.43,401.07,1556.53,402.6,1556.53,405.47z"/>
	<path class="st1" d="M1487.51,355.61h-0.03l-1.46,0.8l-0.22-0.88l1.84-1h0.97v8.54h-1.1V355.61z"/>
	<path class="st1" d="M1529.76,365.07h-0.03l-1.46,0.8l-0.22-0.88l1.84-1h0.97v8.54h-1.1V365.07z"/>
	<path class="st1" d="M1503.7,400.63h-0.02l-0.9,0.49l-0.14-0.54l1.13-0.61h0.6v5.24h-0.68V400.63z"/>
	<path class="st4" d="M1508.27,328.53h-0.03l-1.5,0.83l-0.23-0.91l1.89-1.03h1v8.79h-1.13V328.53z"/>
	<path class="st4" d="M1517.26,373.77h-0.03l-1.5,0.83l-0.23-0.91l1.89-1.03h1v8.79h-1.13V373.77z"/>
	<path class="st4" d="M1511.88,349.09c0,2.95-1.08,4.58-2.97,4.58c-1.67,0-2.8-1.59-2.82-4.46c0-2.91,1.23-4.51,2.97-4.51
		C1510.85,344.7,1511.88,346.33,1511.88,349.09z M1507.24,349.22c0,2.26,0.68,3.54,1.73,3.54c1.18,0,1.75-1.4,1.75-3.62
		c0-2.14-0.54-3.54-1.73-3.54C1507.97,345.61,1507.24,346.86,1507.24,349.22z"/>
	<path class="st4" d="M1530.94,351.89c0,2.95-1.08,4.58-2.97,4.58c-1.67,0-2.8-1.59-2.82-4.46c0-2.91,1.23-4.51,2.97-4.51
		C1529.92,347.5,1530.94,349.12,1530.94,351.89z M1526.3,352.02c0,2.26,0.68,3.54,1.73,3.54c1.18,0,1.75-1.4,1.75-3.62
		c0-2.14-0.54-3.54-1.73-3.54C1527.04,348.4,1526.3,349.66,1526.3,352.02z"/>
	<path class="st4" d="M1462.41,329.9c0,2.95-1.08,4.58-2.97,4.58c-1.67,0-2.8-1.59-2.82-4.46c0-2.91,1.23-4.51,2.97-4.51
		C1461.38,325.51,1462.41,327.14,1462.41,329.9z M1457.77,330.04c0,2.26,0.68,3.54,1.73,3.54c1.18,0,1.75-1.4,1.75-3.62
		c0-2.14-0.54-3.54-1.73-3.54C1458.5,326.42,1457.77,327.67,1457.77,330.04z"/>
	<path class="st4" d="M1552.55,392.51c0,2.8-1.02,4.35-2.82,4.35c-1.59,0-2.66-1.51-2.68-4.24c0-2.77,1.17-4.29,2.82-4.29
		C1551.57,388.33,1552.55,389.88,1552.55,392.51z M1548.14,392.63c0,2.14,0.65,3.36,1.65,3.36c1.12,0,1.66-1.33,1.66-3.44
		c0-2.03-0.51-3.36-1.65-3.36C1548.84,389.2,1548.14,390.39,1548.14,392.63z"/>
	<path class="st4" d="M1503.51,413.9c0,2.8-1.02,4.35-2.82,4.35c-1.59,0-2.66-1.51-2.68-4.24c0-2.77,1.17-4.29,2.82-4.29
		C1502.54,409.73,1503.51,411.28,1503.51,413.9z M1499.1,414.03c0,2.14,0.65,3.36,1.65,3.36c1.12,0,1.66-1.33,1.66-3.44
		c0-2.03-0.51-3.36-1.65-3.36C1499.8,410.59,1499.1,411.78,1499.1,414.03z"/>
	<path class="st4" d="M1548.96,414.17h-0.02l-0.9,0.49l-0.14-0.54l1.13-0.61h0.6v5.24h-0.68V414.17z"/>
	<path class="st4" d="M1480.64,323.4h-0.04l-2.28,1.25l-0.34-1.37l2.86-1.56h1.51v13.32h-1.71V323.4z"/>
	<path class="st4" d="M1489.71,342.89h-0.02l-1.18,0.65l-0.18-0.71l1.48-0.8h0.78v6.88h-0.89V342.89z"/>
	<path class="st4" d="M1439.31,342.13h-0.02l-1.18,0.65l-0.18-0.71l1.48-0.8h0.78v6.88h-0.89V342.13z"/>
	<path class="st4" d="M1459.75,339.96h-0.02l-1.18,0.65l-0.18-0.71l1.48-0.8h0.78v6.88h-0.89V339.96z"/>
	<path class="st4" d="M1521.3,389.25h-0.03l-1.53,0.84l-0.23-0.92l1.93-1.05h1.02v8.96h-1.15V389.25z"/>
	<path class="st4" d="M1529.78,400.08h-0.03l-1.53,0.84l-0.23-0.92l1.93-1.05h1.02v8.96h-1.15V400.08z"/>
	<path class="st4" d="M1521.36,412.11h-0.03l-1.84,1.01l-0.28-1.11l2.31-1.26h1.22v10.73h-1.38V412.11z"/>
	<path class="st4" d="M1569.68,414.74h-0.03l-1.84,1.01l-0.28-1.11l2.31-1.26h1.22v10.73h-1.38V414.74z"/>
	<path class="st1" d="M1570.53,440.53c0,3.14-1.15,4.88-3.16,4.88c-1.78,0-2.98-1.69-3.01-4.75c0-3.1,1.32-4.81,3.16-4.81
		C1569.44,435.85,1570.53,437.58,1570.53,440.53z M1565.59,440.67c0,2.4,0.73,3.77,1.85,3.77c1.26,0,1.86-1.49,1.86-3.85
		c0-2.28-0.57-3.77-1.85-3.77C1566.38,436.82,1565.59,438.15,1565.59,440.67z"/>
	<path class="st4" d="M1576.2,435.59h-0.03l-1.84,1.01l-0.28-1.11l2.31-1.26h1.22v10.73h-1.38V435.59z"/>
	<path class="st4" d="M1582.21,453.47h-0.03l-1.84,1.01l-0.28-1.11l2.31-1.26h1.22v10.73h-1.38V453.47z"/>
	<path class="st1" d="M1539.24,368.65h-0.03l-1.84,1.01l-0.28-1.11l2.31-1.26h1.22v10.73h-1.38V368.65z"/>
	<path class="st1" d="M1530.17,417.48h-0.03l-1.84,1.01l-0.28-1.11l2.31-1.26h1.22v10.73h-1.38V417.48z"/>
	<path class="st4" d="M1521.31,436.23h-0.03l-1.57,0.86l-0.24-0.94l1.97-1.07h1.04v9.17h-1.18V436.23z"/>
	<rect x="1418.21" y="853.58" class="st2" width="100.84" height="3.59"/>
	<path class="st1" d="M1586.53,487.05c-3.65-9.19-12.17-21.07-32.05-25.43l-7.67-1.68l-0.49,0.86c-2.72,4.71-5.93,9.18-9.55,13.29
		l-0.9,1.01c-0.88,0.97-1.82,1.95-2.79,2.93c-4.3,4.3-9.07,8.13-14.18,11.4l-0.18,0.14c-1.09,0.99-2.38,1.96-3.82,2.87l-0.98,0.6
		c-11.52,6.77-29.03,8.8-29.23,8.82c-2.63,0.34-5.31,0.55-7.97,0.64l-1.28,0.03c-0.5,0.01-1.01,0.01-1.52,0.01
		c-12.8,0-25.09-2.82-36.51-8.37l-0.87-0.43c-0.86-0.43-1.7-0.86-2.53-1.32l-0.08-0.04c-10-4.59-14.59-10.07-14.64-10.12l-0.16-0.16
		c-1.45-1.26-2.92-2.63-4.36-4.06c-0.46-0.47-0.93-0.94-1.38-1.41l-0.68-0.72l0,0c-3.8-4.08-7.23-8.6-10.18-13.41l-0.57-0.94
		l-1.03,0.37c-10.13,3.61-16.84,7.91-21.09,13.47c-6.19,7.49-10.73,33.23-13.98,54.83l-0.2,1.32l1.88,0.31
		c22.05,3.65,34.6,5.71,37.28,6.12l0.36,0.06c-0.11,1.5-0.22,3.13-0.3,4.87l-0.02,0.62c-0.02,0.4-0.03,0.81-0.04,1.22l-0.04,3.02
		l0.04-0.03l-0.04,2.9c0.3,15.09,4.04,25.8,11.42,32.72c6.07,5.69,9.02,22.2,8,44.46l-6.27-6.34l-9.16,12.07l12.67,14.93
		c-0.78,5.42-1.59,10.44-2.32,14.89c-0.6,3.7-1.12,6.9-1.48,9.48c-8.74,26.32-22.99,42.69-33.42,51.78
		c-11.32,9.88-20.71,13.57-20.8,13.6l-1.12,0.43l2.51,9.99l1.27-0.26c20.48-4.18,36.32-24.68,46.77-43.3
		c-4.41,46.03-0.26,100.79,4.15,139.46c0.49,4.33,1,8.54,1.51,12.64h2.73c-0.53-4.2-1.05-8.53-1.55-12.97
		c-4.61-40.47-8.95-98.6-3.41-145.7l0.87-7.42l-3.42,6.64c-9.81,19.07-25.84,42.62-46.92,47.71l-1.3-5.17
		c2.86-1.27,10.89-5.26,20.4-13.53c19.44-16.92,29.41-38.26,34.34-53.18l0.06-0.24c0.36-2.57,0.88-5.8,1.49-9.54
		c0.75-4.63,1.6-9.87,2.41-15.55l0.09-0.6l-12.05-14.2l5.96-7.86l8.35,8.45l0.18-3.02c0.71-11.81,1.29-40.28-8.69-49.64
		c-6.82-6.4-10.28-16.48-10.56-30.76l0.08-5.85l0-1.2l0.02-0.56c0.13-2.76,0.33-5.23,0.5-7.42c0.39-4.94,0.56-7.08-0.23-8.08
		l-0.71-0.42l-0.58-0.17c-1.1,0.09-1.16,0.09-2.63,8.18c-4.3-0.69-16.11-2.63-35.19-5.79c2.96-19.46,7.49-45.3,13.23-52.23
		c3.81-4.99,9.81-8.89,18.86-12.24c2.65,4.19,5.64,8.16,8.92,11.81l-3.97,2.64l1.34,2.34l5.01-2.43c0.25,0.25,0.5,0.5,0.75,0.76
		c1.46,1.45,2.95,2.83,4.42,4.11c0.68,0.8,5.5,6.16,15.48,10.75c0.41,0.22,0.82,0.44,1.23,0.66l-3.05,4.7l2.16,1.62l4.08-4.74
		c11.53,5.44,23.89,8.19,36.76,8.19c0.09,0,0.18,0,0.27,0l0.46,8.27l2.7,0.03l0.67-8.4c2.34-0.11,4.69-0.31,6.99-0.61
		c0.72-0.08,17.32-2,29.29-8.61l5.05,5.86l2.16-1.62l-4.03-6.2c1.08-0.75,2.08-1.52,2.97-2.32c5.24-3.36,10.13-7.29,14.55-11.7
		c0.75-0.76,1.49-1.52,2.19-2.27l8.16,3.96l1.34-2.34l-6.87-4.57c3.11-3.67,5.91-7.59,8.35-11.7l5.74,1.26
		c14.96,3.29,25.08,11.24,30.06,23.63c3.78,9.42,3.04,17.97,3.04,18.04l-0.01,37.61h-35.06l-1.37-11.61l-1.81,2.53
		c-2.08,4.77-3.98,9.36-5.67,13.64l-2.24,5.77c-9.22,24.41-14.39,49.64-15.36,75.02l-74.9,4.34l-8.95-11.79l-13.91,14.07
		l-0.24,24.05l0.05,0.19c0.06,0.2,5.86,20.13,16.75,40.85c14.74,28.03,31.29,44.09,49.18,47.75l1.27,0.26l2.52-9.99l-1.12-0.43
		c-0.12-0.05-12.2-4.8-25.54-18.01c-22.08-21.85-30.79-49.83-34.21-69.69l1.55-1.83h88.23c1.72,2.5,8.72,13.25,12.99,27.79
		c6.48,22.1,3.89,41.99-7.69,59.13l-4.77,11.26l-10.6,110.31h2.72l10.53-109.64l4.43-10.53c14.96-22.22,12.58-45.63,7.95-61.38
		c-5.01-17.01-13.41-28.61-13.76-29.1l-0.41-0.55h-90.88l-3.17,3.75l0.1,0.62c6.19,36.82,22.55,59.42,35.19,71.89
		c11.52,11.37,21.91,16.55,25.26,18.03l-1.31,5.17c-39.09-9.42-61.3-82.01-62.56-86.23l0.23-22.55l10.95-11.08l5.96,7.86l-2.42,2.86
		l83.2-4.83l0.04-1.23c0.84-25.5,5.96-50.87,15.22-75.38l2.23-5.75c1.06-2.68,2.2-5.49,3.43-8.39l0.38,5.54h40.29v-40.11
		C1589.76,505.15,1590.31,496.59,1586.53,487.05z"/>
	<path class="st2" d="M1269.77,272.64l1.09,2.63v581.89h9.02v-1.74h4.82v-3.93h-4.82v-3.38h4.82v-3.92h-4.82v-3.04h4.82v-3.92h-4.82
		v-3.38h4.82v-3.92h-4.82v-3.2h4.82v-3.93h-4.82v-3.37h4.82v-3.93h-4.82v-2.86h4.82v-3.93h-4.82v-3.37h4.82v-3.93h-4.82v-3.2h4.82
		v-3.93h-4.82v-3.38h4.82V787h-4.82v-3.62h4.82v-3.92h-4.82v-3.38h4.82v-3.92h-4.82v-3.2h4.82v-3.93h-4.82v-3.38h4.82v-3.93h-4.82
		v-2.86h4.82v-3.92h-4.82v-3.38h4.82v-3.92h-4.82v-3.2h4.82v-3.93h-4.82v-3.38h4.82v-3.93h-4.82v-2.3v-2.4h4.82v-3.93h-4.82v-3.37
		h4.82v-3.92h-4.82v-3.2h4.82v-3.93h-4.82v-3.37h4.82v-3.93h-4.82v-2.86h4.82v-3.93h-4.82v-3.37h4.82v-3.93h-4.82v-3.2h4.82v-3.93
		h-4.82v-3.37h4.82v-3.92h-4.82v-3.62h4.82v-3.93h-4.82v-3.37h4.82v-3.92h-4.82v-3.2h4.82v-3.93h-4.82v-3.37h4.82v-3.93h-4.82v-2.86
		h4.82v-3.93h-4.82v-3.38h4.82V627h-4.82v-3.2h4.82v-3.93h-4.82v-3.38h4.82v-3.92h-4.82v-3.04h4.82v-3.92h-4.82v-3.38h4.82v-3.93
		h-4.82v-3.2h4.82v-3.93h-4.82v-3.37h4.82v-3.93h-4.82v-2.86h4.82v-3.92h-4.82v-3.38h4.82v-3.92h-4.82v-3.2h4.82v-3.93h-4.82v-3.38
		h4.82v-3.92h-4.82v-3.62h4.82v-3.92h-4.82v-3.38h4.82v-3.92h-4.82v-3.2h4.82v-3.92h-4.82v-3.38h4.82v-3.92h-4.82v-2.86h4.82v-3.92
		h-4.82v-3.38h4.82v-3.92h-4.82v-3.2h4.82v-3.93h-4.82v-3.38h4.82v-3.93h-4.82v-2.3v-0.59h4.82v-3.93h-4.82v-3.37h4.82v-3.92h-4.82
		v-3.2h4.82v-3.93h-4.82v-3.37h4.82v-3.93h-4.82v-2.86h4.82v-3.93h-4.82v-3.38h4.82v-3.93h-4.82v-3.2h4.82v-3.93h-4.82v-3.37h4.82
		v-3.92h-4.82v-3.62h4.82v-3.92h-4.82v-3.38h4.82v-3.92h-4.82v-3.2h4.82v-3.93h-4.82v-3.37h4.82v-3.93h-4.82v-2.86h4.82v-3.92h-4.82
		v-3.38h4.82v-3.92h-4.82v-3.2h4.82v-3.93h-4.82v-3.38h4.82v-3.92h-4.82v-3.04h4.82v-3.92h-4.82v-3.38h4.82v-3.92h-4.82v-3.2h4.82
		v-3.93h-4.82v-3.37h4.82v-3.93h-4.82v-2.86h4.82v-3.92h-4.82v-3.38h4.82v-3.93h-4.82v-3.2h4.82v-3.93h-4.82v-3.38h4.82v-3.92h-4.82
		v-3.62h4.82v-3.92h-4.82v-3.38h4.82v-3.92h-4.82v-3.2h4.82v-3.92h-4.82v-3.38h4.82v-3.93h-4.82v-2.86h4.82v-3.92h-4.82v-3.38h4.82
		v-3.93h-4.82V279h4.82v-3.93h-4.82v-3.38h4.82v-3.93h-4.82v-2.3h-9.02v0.01c-35.01-42.55-66.52-1.1-66.61-0.98l11.88,10.68
		C1216.21,275.07,1237.7,229.19,1269.77,272.64z"/>
</g>
</svg>
